<svg width="67" height="63" viewBox="0 0 67 63" fill="none" xmlns="http://www.w3.org/2000/svg">
<rect width="67" height="63" rx="10" fill="url(#paint0_linear_77_24)"/>
<path d="M31.9334 18.1975C29.4814 18.1975 27.4863 20.1925 27.4863 22.6445C27.4863 25.0965 29.4813 27.0915 31.9334 27.0915C34.3855 27.0915 36.3803 25.0966 36.3803 22.6445C36.3802 20.1923 34.3854 18.1975 31.9334 18.1975ZM31.9334 25.4527C30.385 25.4527 29.1251 24.1929 29.1251 22.6444C29.1251 21.0959 30.3849 19.8362 31.9334 19.8362C33.4818 19.8362 34.7416 21.096 34.7416 22.6444C34.7415 24.1929 33.4817 25.4527 31.9334 25.4527Z" fill="white"/>
<path d="M51.3846 16.8427C49.7775 16.8427 48.47 18.1502 48.47 19.7573C48.47 21.3643 49.7775 22.6719 51.3846 22.6719C52.9917 22.6719 54.2992 21.3643 54.2992 19.7573C54.2991 18.1502 52.9916 16.8427 51.3846 16.8427ZM51.3846 21.0331C50.6811 21.0331 50.1087 20.4607 50.1087 19.7573C50.1087 19.0538 50.681 18.4814 51.3846 18.4814C52.0881 18.4814 52.6604 19.0538 52.6604 19.7573C52.6603 20.4608 52.088 21.0331 51.3846 21.0331Z" fill="white"/>
<path d="M53.7025 9.00047L41.787 9C39.9671 9 38.4865 10.4811 38.4865 12.3015V16.0632H33.5733C33.5721 16.0632 33.5712 16.0631 33.5701 16.0631H15.6794C15.6773 16.0631 15.6753 16.0632 15.673 16.0632H12.5018C10.5709 16.0632 9 17.6342 9 19.565V40.6053C9 42.5362 10.5709 44.1071 12.5018 44.1071H25.048L23.9418 48.6006C23.9408 48.6045 23.9405 48.6084 23.9396 48.6123C23.9351 48.6319 23.9315 48.6519 23.9285 48.6722C23.927 48.6819 23.9252 48.6916 23.924 48.7014C23.9217 48.7208 23.9207 48.7406 23.9198 48.7607C23.9194 48.7707 23.9184 48.7809 23.9183 48.7911C23.9183 48.793 23.918 48.7949 23.918 48.7968C23.918 48.8212 23.9195 48.8454 23.9216 48.8693C23.9219 48.8724 23.9217 48.8755 23.9221 48.8786C23.925 48.9086 23.9299 48.9383 23.936 48.9673C23.9367 48.9711 23.9379 48.9746 23.9388 48.9785C23.9445 49.0035 23.9511 49.0282 23.959 49.0523C23.9613 49.0591 23.9641 49.0659 23.9665 49.0728C23.9739 49.0934 23.9819 49.1138 23.9909 49.1336C23.9946 49.1418 23.9987 49.15 24.0027 49.158C24.0117 49.1761 24.0212 49.1939 24.0313 49.2113C24.0364 49.2198 24.0413 49.2282 24.0467 49.2366C24.0574 49.2534 24.0689 49.2696 24.0808 49.2855C24.0848 49.291 24.0882 49.2969 24.0925 49.3023C24.0944 49.3046 24.0966 49.3067 24.0984 49.309C24.1129 49.327 24.1282 49.344 24.144 49.3607C24.1482 49.3652 24.1521 49.37 24.1565 49.3744C24.1768 49.3948 24.1981 49.4141 24.2205 49.4322C24.2264 49.4369 24.2326 49.4412 24.2386 49.4458C24.2557 49.459 24.273 49.4716 24.291 49.4834C24.2988 49.4885 24.3069 49.4931 24.3148 49.4979C24.332 49.5083 24.3494 49.5182 24.3675 49.5272C24.3759 49.5314 24.3842 49.5354 24.3926 49.5393C24.4111 49.5479 24.4298 49.5557 24.449 49.563C24.4574 49.5661 24.4658 49.5693 24.4742 49.5722C24.4941 49.579 24.5143 49.5847 24.5348 49.59C24.5431 49.5921 24.5512 49.5945 24.5594 49.5963C24.5811 49.6011 24.603 49.6048 24.6253 49.6077C24.6328 49.6086 24.6401 49.6102 24.6477 49.611C24.6772 49.6142 24.7071 49.6162 24.7374 49.6162H34.6155H41.1007C41.5533 49.6162 41.9201 49.2493 41.9201 48.7968C41.9201 48.3443 41.5533 47.9774 41.1007 47.9774H35.6609L36.6135 44.1074L50.9441 44.1069C52.6717 44.1069 54.0774 42.7019 54.0774 40.9747V33.8867C55.7214 33.6997 57.003 32.301 57.003 30.6078V12.3013C57.0033 10.4811 55.5225 9.00047 53.7025 9.00047ZM42.7469 12.3013C42.7469 11.3849 43.4924 10.6393 44.4089 10.6393H53.7025C54.619 10.6392 55.3645 11.3848 55.3645 12.3013V13.2672H42.7469V12.3013ZM42.7468 14.9058H55.3644V27.8998H54.9726L50.8493 23.3624C50.6939 23.1915 50.4737 23.094 50.2429 23.094C50.012 23.094 49.7918 23.1914 49.6365 23.3624L48.4658 24.6504L45.5588 21.4526C45.4035 21.2819 45.1833 21.1844 44.9525 21.1844C44.7217 21.1844 44.5015 21.2818 44.3463 21.4527L42.7469 23.2123V14.9058H42.7468ZM52.7583 27.8998H51.4198L49.5733 25.8686L50.2429 25.1318L52.7583 27.8998ZM42.747 25.5833L42.7795 25.6129L44.9527 23.222L49.2053 27.8998H42.747V25.5833ZM40.1252 12.3016C40.1252 11.4662 40.7449 10.7745 41.548 10.6581C41.2688 11.1424 41.108 11.7032 41.108 12.3014V30.6077C41.108 31.2054 41.2685 31.766 41.5475 32.2501C40.7446 32.1334 40.1252 31.4424 40.1252 30.6077V12.3016H40.1252ZM14.1848 34.5053L20.7765 27.7305L29.5396 37.369H14.1848V34.5053ZM27.9878 33.225L29.9566 31.0585L35.691 37.3688H31.7541V37.3689L27.9878 33.225ZM12.926 42.4682H12.5018C11.4745 42.4683 10.6388 41.6326 10.6388 40.6053V19.565C10.6388 18.5377 11.4745 17.702 12.5018 17.702H12.926C12.6839 18.1464 12.5461 18.6557 12.5461 19.1963V40.9743C12.5461 41.5149 12.6838 42.0239 12.926 42.4682ZM33.9733 47.9772H25.783L26.7356 44.1071H34.926L33.9733 47.9772ZM52.4389 40.9745C52.4389 41.798 51.7685 42.4679 50.9444 42.4679H15.6794C14.8553 42.4679 14.1848 41.798 14.1848 40.9745V39.0078H52.4389V40.9745ZM52.4389 37.369H37.9054L30.5631 29.2893C30.4078 29.1184 30.1876 29.0209 29.9567 29.0209C29.7259 29.0209 29.5056 29.1183 29.3504 29.2893L26.8805 32.007L21.4029 25.9836C21.2509 25.8164 21.0365 25.7194 20.8106 25.7156C20.5824 25.7149 20.367 25.8015 20.2095 25.9635L14.1849 32.1555V19.1964C14.1849 18.3734 14.8537 17.7038 15.6763 17.7021H38.4866V30.6077C38.4866 32.4275 39.9672 33.9081 41.7871 33.9081L52.439 33.9084V37.369H52.4389ZM55.3645 30.6076C55.3645 31.524 54.619 32.2696 53.7025 32.2696L44.4025 32.2693C43.4889 32.2658 42.7468 31.5219 42.7468 30.6076V29.5386H55.3644V30.6076H55.3645Z" fill="white"/>
<defs>
<linearGradient id="paint0_linear_77_24" x1="33.5" y1="0" x2="33.5" y2="63" gradientUnits="userSpaceOnUse">
<stop stop-color="#E8567D"/>
<stop offset="1" stop-color="#EE6663"/>
</linearGradient>
</defs>
</svg>
