<svg width="265" height="55" viewBox="0 0 265 55" fill="none" xmlns="http://www.w3.org/2000/svg">
<path d="M65.8297 34.4213C65.1961 34.4483 64.5704 34.2727 64.0438 33.9202C63.5334 33.5343 63.1392 33.0158 62.9041 32.4214L52.4245 8.98876C52.1518 8.45082 52.0672 7.83732 52.1843 7.24591C52.3084 6.75688 52.6084 6.33045 53.0271 6.0477C53.4778 5.74892 54.0101 5.59671 54.551 5.61199C55.183 5.55448 55.8146 5.72788 56.3281 6.09998C56.7717 6.51346 57.1087 7.02763 57.3106 7.59884L66.8078 29.5282H65.0612L74.5235 7.53784C74.7596 6.98696 75.1162 6.49571 75.5671 6.09998C76.0497 5.73842 76.6459 5.56073 77.2482 5.59891C77.7707 5.57828 78.2853 5.73155 78.711 6.03463C79.098 6.32905 79.3623 6.75577 79.4533 7.23284C79.5417 7.82864 79.4441 8.43716 79.1738 8.97569L68.6941 32.4083C68.4627 32.9941 68.0837 33.5103 67.5938 33.9072C67.0782 34.2669 66.4583 34.4476 65.8297 34.4213Z" fill="#1B1E32"/>
<path d="M87.1864 10.5355C86.3967 10.5847 85.6174 10.3359 85.0031 9.83839C84.7382 9.59136 84.5308 9.28926 84.3958 8.95347C84.2607 8.61767 84.2012 8.25638 84.2215 7.89511C84.1977 7.53154 84.2556 7.16725 84.3908 6.8288C84.526 6.49036 84.7352 6.18629 85.0031 5.93876C85.6488 5.49586 86.4138 5.25876 87.1973 5.25876C87.9808 5.25876 88.7459 5.49586 89.3915 5.93876C89.653 6.19013 89.8565 6.4954 89.9877 6.83327C90.119 7.17115 90.1748 7.53351 90.1513 7.89511C90.1714 8.25441 90.114 8.61384 89.9829 8.94909C89.8518 9.28434 89.6501 9.58761 89.3915 9.83839C88.7715 10.3412 87.9834 10.5903 87.1864 10.5355ZM87.1864 34.369C86.8452 34.391 86.5034 34.338 86.185 34.2138C85.8666 34.0896 85.5794 33.8972 85.3437 33.6501C84.8909 33.0851 84.6652 32.3722 84.7106 31.6502V16.9928C84.6604 16.2621 84.8898 15.5396 85.3524 14.9711C85.5914 14.7296 85.8796 14.5423 86.1976 14.422C86.5156 14.3017 86.8558 14.2512 87.1951 14.2739C87.5375 14.2531 87.8805 14.3045 88.2017 14.4246C88.5229 14.5447 88.8152 14.7309 89.0596 14.9711C89.5306 15.5355 89.7639 16.2603 89.7102 16.9928V31.6502C89.7556 32.3722 89.5299 33.0851 89.0771 33.6501C88.8337 33.9004 88.5383 34.0946 88.2116 34.2188C87.885 34.343 87.535 34.3943 87.1864 34.369Z" fill="#1B1E32"/>
<path d="M97.4827 34.4213C97.1361 34.4627 96.7846 34.425 96.4548 34.3111C96.1249 34.1972 95.8253 34.0101 95.5785 33.7638C95.3317 33.5175 95.1441 33.2185 95.03 32.8894C94.9158 32.5602 94.8781 32.2095 94.9195 31.8637V16.7357C94.8949 16.3951 94.9391 16.053 95.0493 15.7297C95.1596 15.4064 95.3337 15.1084 95.5614 14.8534C96.0708 14.4394 96.7078 14.2134 97.3648 14.2134C98.0218 14.2134 98.6587 14.4394 99.1682 14.8534C99.3959 15.1084 99.57 15.4064 99.6803 15.7297C99.7905 16.053 99.8346 16.3951 99.81 16.7357V19.2541H99.4083C99.6823 17.8168 100.465 16.5255 101.613 15.6159C102.899 14.7203 104.413 14.2066 105.98 14.1345C106.222 14.0994 106.469 14.1204 106.701 14.196C106.934 14.2715 107.146 14.3996 107.32 14.5702C107.693 14.9983 107.899 15.5457 107.901 16.1127C107.941 16.3991 107.921 16.6906 107.842 16.9689C107.763 17.2471 107.627 17.506 107.443 17.7292C107.016 18.1745 106.435 18.4396 105.818 18.4699L104.945 18.5526C103.318 18.7095 102.089 19.2091 101.26 20.0515C100.43 20.8939 100.008 22.0674 99.9934 23.5721V31.8506C100.039 32.5428 99.8103 33.2252 99.3559 33.7503C99.1054 33.9828 98.8102 34.1621 98.4883 34.2775C98.1663 34.3928 97.8242 34.4417 97.4827 34.4213Z" fill="#1B1E32"/>
<path d="M119.245 34.4866C117.409 34.5311 115.591 34.1051 113.966 33.2492C112.479 32.4379 111.264 31.2074 110.473 29.7112C109.61 28.0369 109.182 26.1732 109.229 24.291C109.206 22.8543 109.444 21.4253 109.932 20.0733C110.371 18.8762 111.06 17.7861 111.953 16.8751C112.848 15.9743 113.928 15.2785 115.119 14.836C116.442 14.3531 117.842 14.1154 119.25 14.1345C121.09 14.0897 122.911 14.5173 124.538 15.3763C126.022 16.1818 127.237 17.4044 128.031 18.8925C128.886 20.5609 129.305 22.4178 129.249 24.291C129.27 25.7347 129.032 27.1705 128.546 28.5305C128.11 29.7355 127.421 30.8335 126.524 31.7504C125.63 32.6512 124.55 33.347 123.359 33.7895C122.041 34.269 120.648 34.5053 119.245 34.4866ZM119.245 30.6872C120.181 30.7248 121.105 30.4695 121.888 29.9569C122.671 29.4444 123.274 28.7003 123.612 27.829C124.061 26.7047 124.273 25.5005 124.236 24.291C124.236 22.1603 123.778 20.5656 122.874 19.4981C122.43 18.982 121.875 18.5721 121.251 18.2991C120.627 18.026 119.949 17.8968 119.267 17.9209C118.345 17.8986 117.435 18.1422 116.647 18.6223C115.861 19.1329 115.252 19.8721 114.901 20.7399C114.454 21.8645 114.243 23.0687 114.281 24.2779C114.281 26.3809 114.735 27.9786 115.643 29.0707C116.079 29.5977 116.631 30.0176 117.255 30.2979C117.88 30.5782 118.561 30.7114 119.245 30.6872Z" fill="#1B1E32"/>
<path d="M135.873 34.4213C135.54 34.4384 135.207 34.3877 134.894 34.2724C134.581 34.157 134.294 33.9794 134.052 33.7503C133.825 33.4914 133.652 33.1903 133.542 32.8643C133.431 32.5383 133.387 32.1938 133.41 31.8506V16.7357C133.386 16.3951 133.43 16.053 133.54 15.7297C133.65 15.4064 133.825 15.1084 134.052 14.8534C134.562 14.4394 135.199 14.2134 135.856 14.2134C136.513 14.2134 137.15 14.4394 137.659 14.8534C137.887 15.1084 138.061 15.4064 138.171 15.7297C138.281 16.053 138.326 16.3951 138.301 16.7357V19.4546L137.864 18.4524C138.398 17.1129 139.361 15.9869 140.602 15.2499C141.885 14.508 143.346 14.1284 144.829 14.152C146.18 14.0956 147.522 14.3962 148.719 15.0234C149.754 15.6336 150.557 16.5681 151.003 17.6812C151.554 19.1163 151.812 20.6464 151.763 22.1821V31.8506C151.781 32.1965 151.73 32.5425 151.613 32.8687C151.496 33.1948 151.316 33.4945 151.082 33.7503C150.839 33.9799 150.552 34.1579 150.238 34.2732C149.925 34.3886 149.59 34.439 149.257 34.4213C148.917 34.4415 148.578 34.3937 148.258 34.2807C147.937 34.1677 147.643 33.9918 147.392 33.7634C147.155 33.5069 146.973 33.2051 146.857 32.8763C146.741 32.5475 146.692 32.1985 146.715 31.8506V22.4131C146.715 20.8939 146.424 19.7872 145.842 19.0929C145.266 18.4001 144.379 18.0516 143.174 18.0516C142.527 18.0231 141.881 18.1314 141.279 18.3695C140.677 18.6075 140.133 18.9699 139.681 19.4328C138.78 20.4343 138.31 21.7486 138.371 23.0928V31.8506C138.403 33.5644 137.57 34.4213 135.873 34.4213Z" fill="#1B1E32"/>
<path d="M166.487 34.4867C164.505 34.5405 162.54 34.116 160.758 33.2492C159.202 32.466 157.912 31.2412 157.051 29.7287C156.146 28.0755 155.694 26.2133 155.741 24.3302C155.698 22.4796 156.132 20.649 157.003 19.0145C157.817 17.5244 159.025 16.2856 160.496 15.4329C161.834 14.7014 163.314 14.2674 164.836 14.1606C166.358 14.0538 167.885 14.2768 169.312 14.8142C170.395 15.2496 171.367 15.9193 172.159 16.7749C172.97 17.6707 173.585 18.7259 173.962 19.8729C174.392 21.1935 174.602 22.5757 174.582 23.9642C174.593 24.174 174.553 24.3834 174.466 24.5745C174.379 24.7656 174.246 24.9329 174.08 25.0622C173.661 25.3396 173.163 25.4727 172.661 25.4413H159.815V22.5699H171.072L170.434 23.1712C170.454 22.1174 170.258 21.0707 169.858 20.0951C169.539 19.3199 168.995 18.6581 168.295 18.1954C167.529 17.7314 166.644 17.5012 165.749 17.5331C164.745 17.5023 163.754 17.7692 162.902 18.2999C162.1 18.8341 161.473 19.5917 161.099 20.4785C160.661 21.5494 160.45 22.6991 160.479 23.8553V24.1385C160.479 26.3229 160.992 27.9553 162.02 29.0359C163.048 30.1165 164.564 30.6553 166.57 30.6524C167.358 30.6438 168.143 30.5577 168.915 30.3953C169.777 30.2219 170.607 29.9177 171.377 29.4934C171.815 29.2016 172.331 29.0497 172.858 29.0577C173.245 29.0783 173.612 29.2431 173.884 29.5195C174.13 29.7902 174.283 30.1321 174.32 30.4955C174.369 30.9021 174.293 31.3137 174.102 31.6763C173.866 32.1122 173.512 32.4731 173.08 32.7177C172.085 33.3295 170.994 33.7713 169.853 34.0248C168.752 34.3038 167.623 34.4588 166.487 34.4867Z" fill="#1B1E32"/>
<path d="M188.407 34.4213C188.058 34.4438 187.708 34.393 187.38 34.2722C187.052 34.1514 186.753 33.9632 186.503 33.7198C186.038 33.1844 185.801 32.4884 185.844 31.7809V10.1783H178.028C177.731 10.1945 177.435 10.1503 177.156 10.0484C176.878 9.94655 176.623 9.7891 176.408 9.58568C176.208 9.37623 176.054 9.12825 175.954 8.85699C175.854 8.58573 175.811 8.29694 175.827 8.0084C175.808 7.72023 175.849 7.43123 175.949 7.16022C176.049 6.88921 176.206 6.64227 176.408 6.43548C176.858 6.05505 177.439 5.86303 178.028 5.89956H198.786C199.381 5.86028 199.968 6.05236 200.423 6.43548C200.626 6.64391 200.782 6.89238 200.882 7.16482C200.982 7.43726 201.024 7.72762 201.004 8.01712C201.018 8.30412 200.974 8.59097 200.874 8.8605C200.774 9.13002 200.621 9.37668 200.423 9.58568C200.207 9.78808 199.951 9.94425 199.672 10.0446C199.392 10.145 199.095 10.1875 198.799 10.1695H190.974V31.7678C191.016 32.4722 190.787 33.166 190.332 33.7067C190.081 33.956 189.779 34.1487 189.447 34.2719C189.115 34.3952 188.76 34.4461 188.407 34.4213Z" fill="#1B1E32"/>
<path d="M209.969 34.4867C207.986 34.5404 206.019 34.1159 204.235 33.2492C202.679 32.466 201.389 31.2412 200.528 29.7287C199.623 28.0755 199.171 26.2133 199.218 24.3302C199.175 22.4796 199.61 20.649 200.48 19.0145C201.294 17.5238 202.502 16.2849 203.973 15.4329C205.312 14.7008 206.793 14.2664 208.316 14.1596C209.838 14.0528 211.366 14.2761 212.794 14.8142C213.875 15.2493 214.846 15.919 215.636 16.7749C216.454 17.6684 217.073 18.7241 217.453 19.8729C217.879 21.1942 218.084 22.5764 218.06 23.9642C218.071 24.1736 218.032 24.3827 217.945 24.5738C217.859 24.765 217.727 24.9325 217.562 25.0622C217.141 25.3396 216.642 25.4727 216.139 25.4413H203.275V22.5699H214.536L213.894 23.1712C213.927 22.1196 213.743 21.0726 213.353 20.0951C213.031 19.3181 212.481 18.6561 211.776 18.1954C211.011 17.7314 210.126 17.5012 209.231 17.5331C208.225 17.502 207.233 17.7688 206.379 18.2999C205.578 18.8353 204.952 19.5925 204.576 20.4785C204.138 21.5494 203.927 22.6991 203.956 23.8553V24.1385C203.956 26.3229 204.47 27.9553 205.497 29.0359C206.525 30.1165 208.036 30.6669 210.03 30.6872C210.818 30.6787 211.603 30.5926 212.375 30.4302C213.237 30.2582 214.068 29.954 214.837 29.5282C215.277 29.2372 215.794 29.0853 216.322 29.0925C216.709 29.1121 217.074 29.2771 217.344 29.5544C217.59 29.8251 217.743 30.167 217.78 30.5304C217.831 30.937 217.755 31.3493 217.562 31.7112C217.339 32.1483 216.999 32.5149 216.58 32.7699C215.585 33.3822 214.494 33.824 213.353 34.0771C212.244 34.3401 211.109 34.4775 209.969 34.4867Z" fill="#1B1E32"/>
<path d="M231.085 34.4867C229.216 34.5327 227.367 34.0991 225.714 33.2274C224.211 32.409 222.985 31.1641 222.191 29.6502C221.329 27.9691 220.902 26.1001 220.946 24.2125C220.924 22.7758 221.162 21.3469 221.649 19.9949C222.081 18.8059 222.772 17.7272 223.671 16.8359C224.585 15.9494 225.677 15.2676 226.876 14.836C228.226 14.3532 229.651 14.1156 231.085 14.1345C232.051 14.1457 233.012 14.267 233.95 14.4962C234.976 14.7328 235.957 15.1346 236.853 15.6857C237.235 15.9004 237.532 16.2385 237.696 16.6442C237.831 17.0095 237.858 17.4056 237.775 17.7858C237.704 18.1577 237.532 18.5029 237.277 18.7836C237.03 19.0586 236.698 19.2428 236.334 19.3064C235.903 19.3607 235.466 19.2686 235.094 19.045C234.529 18.7087 233.923 18.4466 233.29 18.2651C232.723 18.0987 232.135 18.0107 231.544 18.0036C230.748 17.9905 229.958 18.1388 229.221 18.4394C228.57 18.7054 227.987 19.115 227.518 19.6376C227.024 20.1981 226.661 20.86 226.452 21.5765C226.2 22.4468 226.079 23.3501 226.094 24.2561C226.094 26.2314 226.569 27.7839 227.518 28.9139C228.467 30.0438 229.809 30.6103 231.544 30.6132C232.134 30.6102 232.721 30.5296 233.29 30.3735C233.92 30.2 234.525 29.9497 235.094 29.6285C235.459 29.4036 235.893 29.3184 236.316 29.3888C236.669 29.4627 236.986 29.6531 237.216 29.9291C237.457 30.2115 237.609 30.5586 237.652 30.9269C237.704 31.3131 237.656 31.7061 237.513 32.0684C237.35 32.4581 237.061 32.7819 236.692 32.9878C235.821 33.5157 234.874 33.9066 233.884 34.1468C232.968 34.3707 232.028 34.4848 231.085 34.4867Z" fill="#1B1E32"/>
<path d="M243.425 34.4213C243.089 34.4428 242.752 34.3956 242.435 34.2824C242.119 34.1693 241.828 33.9926 241.582 33.7634C241.355 33.5044 241.182 33.2033 241.072 32.8773C240.961 32.5514 240.917 32.2069 240.94 31.8637V8.09553C240.916 7.75559 240.96 7.41425 241.071 7.09169C241.181 6.76914 241.355 6.47192 241.582 6.21761C241.831 5.99292 242.122 5.82042 242.438 5.71038C242.755 5.60034 243.09 5.55502 243.425 5.57711C243.763 5.55576 244.101 5.60136 244.421 5.71129C244.741 5.82122 245.036 5.99331 245.289 6.21761C245.522 6.46895 245.701 6.7653 245.814 7.08832C245.928 7.41134 245.974 7.75415 245.949 8.09553V18.4524H245.399C245.932 17.1129 246.895 15.9869 248.136 15.2499C249.424 14.497 250.893 14.1111 252.385 14.1345C253.735 14.0781 255.076 14.3787 256.271 15.0059C257.306 15.6162 258.108 16.5507 258.555 17.6638C259.105 19.0988 259.364 20.6289 259.315 22.1647V31.8506C259.361 32.5428 259.132 33.2252 258.677 33.7503C258.429 33.985 258.135 34.1659 257.813 34.2814C257.492 34.3969 257.149 34.4445 256.808 34.4213C256.47 34.4414 256.131 34.3936 255.811 34.2806C255.492 34.1675 255.198 33.9917 254.948 33.7634C254.715 33.5074 254.537 33.2072 254.423 32.8809C254.309 32.5545 254.262 32.2085 254.285 31.8637V22.413C254.285 20.8924 254.001 19.7988 253.411 19.0929C252.822 18.3871 251.948 18.0516 250.748 18.0516C250.101 18.0228 249.455 18.131 248.853 18.3691C248.251 18.6071 247.706 18.9696 247.254 19.4328C246.353 20.4335 245.882 21.7484 245.944 23.0928V31.8506C245.949 33.5499 245.11 34.4213 243.425 34.4213Z" fill="#1B1E32"/>
<path d="M62.9697 53.7626C62.8904 53.7715 62.8102 53.7628 62.7347 53.7372C62.6592 53.7116 62.5904 53.6697 62.533 53.6144C62.4809 53.5553 62.4415 53.4861 62.4175 53.4112C62.3934 53.3362 62.3852 53.257 62.3933 53.1787V44.8784C62.3854 44.8001 62.3938 44.721 62.4178 44.6461C62.4419 44.5711 62.4811 44.5019 62.533 44.4427C62.5856 44.3909 62.6486 44.3509 62.7179 44.3254C62.7871 44.2998 62.8611 44.2893 62.9347 44.2945C63.0138 44.2874 63.0936 44.2968 63.1688 44.3224C63.244 44.3479 63.313 44.3889 63.3714 44.4427C63.4238 44.5017 63.4637 44.5708 63.4885 44.6457C63.5132 44.7206 63.5224 44.7998 63.5155 44.8784V46.1855L63.3626 45.9895C63.4961 45.4802 63.8053 45.0343 64.2359 44.7303C64.702 44.4125 65.2567 44.2493 65.821 44.264C66.3789 44.2545 66.9278 44.4058 67.4017 44.6997C67.8629 44.9917 68.2275 45.4131 68.4496 45.911C68.9443 47.1068 68.9443 48.4493 68.4496 49.6451C68.2291 50.1503 67.8612 50.5776 67.394 50.8713C66.9267 51.1651 66.3816 51.3117 65.8297 51.2921C65.2678 51.3095 64.7151 51.146 64.2534 50.8259C63.8208 50.5251 63.5048 50.0852 63.3583 49.5797H63.5286V53.2005C63.5361 53.2802 63.5259 53.3606 63.4987 53.4359C63.4715 53.5112 63.428 53.5796 63.3714 53.6362C63.2589 53.7286 63.1149 53.7739 62.9697 53.7626ZM65.5896 50.3814C65.9832 50.3904 66.3707 50.2828 66.703 50.0721C67.0227 49.8563 67.2742 49.554 67.4279 49.2007C67.6095 48.7541 67.6972 48.2751 67.6855 47.7933C67.734 47.1015 67.5327 46.4152 67.1179 45.8587C66.9312 45.6384 66.6963 45.4637 66.4314 45.3482C66.1664 45.2326 65.8784 45.1792 65.5896 45.1921C65.2018 45.1828 64.8196 45.2857 64.4892 45.4884C64.1639 45.7003 63.9087 46.0035 63.7556 46.3598C63.5716 46.8118 63.4839 47.297 63.498 47.7846C63.4537 48.4753 63.6564 49.1592 64.07 49.7148C64.2578 49.935 64.4935 50.1095 64.7591 50.225C65.0247 50.3405 65.3132 50.394 65.6027 50.3814H65.5896Z" fill="#1B1E32"/>
<path d="M77.0037 51.2572C76.9242 51.2644 76.8441 51.2545 76.7688 51.2282C76.6935 51.2019 76.6247 51.1598 76.5671 51.1047C76.5146 51.0455 76.4745 50.9765 76.4491 50.9017C76.4236 50.8269 76.4132 50.7478 76.4186 50.669V44.8784C76.412 44.8002 76.421 44.7214 76.445 44.6466C76.4689 44.5719 76.5075 44.5026 76.5583 44.4427C76.6114 44.3903 76.6751 44.35 76.7452 44.3245C76.8153 44.2989 76.89 44.2887 76.9644 44.2945C77.0394 44.2897 77.1145 44.3004 77.1851 44.3259C77.2557 44.3514 77.3203 44.3911 77.3749 44.4427C77.4273 44.5017 77.4672 44.5708 77.492 44.6457C77.5167 44.7206 77.5259 44.7998 77.519 44.8784V46.0069H77.3836C77.5063 45.4974 77.8066 45.048 78.2307 44.739C78.6886 44.4309 79.2286 44.2669 79.7808 44.2684C79.9 44.2523 80.0208 44.2836 80.117 44.3555C80.1635 44.4024 80.1999 44.4583 80.2239 44.5198C80.2479 44.5812 80.2591 44.6469 80.2568 44.7128C80.2643 44.7797 80.2581 44.8474 80.2386 44.9118C80.219 44.9762 80.1866 45.036 80.1432 45.0875C80.0389 45.1891 79.9003 45.2481 79.7546 45.2531L79.5319 45.2836C78.988 45.3009 78.4691 45.5163 78.0735 45.8892C77.8976 46.0808 77.7618 46.3056 77.6741 46.5502C77.5863 46.7949 77.5485 47.0546 77.5626 47.314V50.6864C77.568 50.7653 77.5576 50.8444 77.5322 50.9191C77.5067 50.9939 77.4666 51.0629 77.4142 51.1222C77.3582 51.1707 77.293 51.2077 77.2225 51.2309C77.1521 51.2541 77.0777 51.263 77.0037 51.2572Z" fill="#1B1E32"/>
<path d="M90.2866 51.2834C89.6437 51.2976 89.0079 51.1476 88.4395 50.8477C87.9286 50.5726 87.5107 50.1526 87.2387 49.6407C86.96 49.0623 86.8153 48.4286 86.8153 47.7868C86.8153 47.1449 86.96 46.5113 87.2387 45.9328C87.5032 45.4246 87.9018 44.9983 88.3915 44.6998C88.9046 44.4001 89.4914 44.2492 90.0857 44.264C90.5063 44.256 90.924 44.3346 91.3127 44.495C91.6683 44.6418 91.9862 44.8667 92.2428 45.1529C92.5068 45.4583 92.7059 45.8141 92.8279 46.1986C92.9683 46.6439 93.0361 47.1087 93.0288 47.5755C93.0344 47.6356 93.0263 47.6962 93.0051 47.7528C92.9839 47.8094 92.9502 47.8605 92.9065 47.9022C92.8001 47.9786 92.6704 48.0156 92.5397 48.0068H87.6798V47.2748H92.269L92.0463 47.4578C92.0591 47.0212 91.9818 46.5867 91.8192 46.1812C91.6896 45.8551 91.4643 45.5757 91.173 45.3795C90.8506 45.1864 90.4789 45.091 90.1032 45.105C89.6779 45.0921 89.2583 45.2059 88.898 45.4318C88.5646 45.6514 88.3046 45.9655 88.1513 46.3337C87.9778 46.761 87.8931 47.2191 87.9024 47.68V47.7628C87.8516 48.4673 88.0735 49.1644 88.5225 49.7104C88.7498 49.9388 89.0229 50.1167 89.3239 50.2323C89.6249 50.3479 89.947 50.3988 90.2691 50.3814C90.5876 50.3802 90.9047 50.3377 91.2123 50.2551C91.5382 50.1605 91.8465 50.0133 92.1249 49.8194C92.2281 49.7454 92.3515 49.7044 92.4786 49.7017C92.5747 49.7006 92.6679 49.7347 92.7406 49.7976C92.8107 49.86 92.8587 49.9433 92.8776 50.0352C92.8965 50.127 92.8852 50.2225 92.8454 50.3074C92.7923 50.4172 92.707 50.5084 92.6008 50.5688C92.2702 50.8041 91.9007 50.9796 91.5092 51.0873C91.1126 51.2082 90.7012 51.2742 90.2866 51.2834Z" fill="#1B1E32"/>
<path d="M101.129 51.2572C101.049 51.2656 100.969 51.2562 100.893 51.2299C100.818 51.2035 100.749 51.1608 100.692 51.1047C100.593 50.982 100.543 50.8266 100.552 50.669V44.8784C100.546 44.8002 100.555 44.7214 100.579 44.6467C100.603 44.5719 100.641 44.5026 100.692 44.4427C100.745 44.3904 100.809 44.35 100.879 44.3245C100.949 44.2989 101.024 44.2887 101.098 44.2945C101.173 44.29 101.248 44.3008 101.319 44.3263C101.389 44.3517 101.454 44.3914 101.509 44.4427C101.561 44.5017 101.601 44.5708 101.626 44.6457C101.651 44.7206 101.66 44.7998 101.653 44.8784V46.1028L101.5 45.911C101.643 45.4256 101.945 45.0017 102.357 44.7065C102.769 44.4114 103.268 44.2618 103.775 44.2815C104.275 44.2576 104.768 44.4018 105.177 44.691C105.563 45.0139 105.819 45.4661 105.897 45.9633H105.687C105.84 45.4643 106.157 45.0313 106.587 44.7346C107.033 44.4338 107.564 44.2814 108.102 44.2989C108.541 44.281 108.977 44.3819 109.364 44.5908C109.7 44.7942 109.962 45.0996 110.111 45.4623C110.291 45.9392 110.376 46.4471 110.36 46.9567V50.6908C110.37 50.8492 110.318 51.0053 110.215 51.1265C110.157 51.1807 110.088 51.2222 110.013 51.2484C109.938 51.2746 109.858 51.2851 109.779 51.279C109.704 51.2833 109.628 51.2719 109.558 51.2457C109.487 51.2194 109.423 51.1788 109.368 51.1265C109.264 51.006 109.211 50.8498 109.22 50.6908V47.0134C109.257 46.5341 109.146 46.055 108.901 45.6409C108.769 45.4857 108.601 45.3649 108.412 45.289C108.222 45.2131 108.017 45.1843 107.814 45.2052C107.566 45.1949 107.319 45.2413 107.092 45.341C106.865 45.4407 106.664 45.591 106.504 45.7803C106.162 46.2297 105.992 46.7857 106.024 47.3489V50.6908C106.033 50.8498 105.979 51.006 105.875 51.1265C105.817 51.1813 105.749 51.2233 105.673 51.2496C105.598 51.2759 105.518 51.2859 105.439 51.279C105.363 51.2831 105.287 51.2717 105.215 51.2454C105.144 51.2192 105.079 51.1787 105.024 51.1265C104.921 51.0053 104.869 50.8492 104.88 50.6908V47.0134C104.917 46.533 104.802 46.0531 104.552 45.6409C104.42 45.4869 104.252 45.3669 104.064 45.2911C103.876 45.2152 103.672 45.1858 103.469 45.2052C103.221 45.1952 102.975 45.2418 102.748 45.3415C102.521 45.4412 102.319 45.5913 102.159 45.7803C101.82 46.2307 101.65 46.786 101.679 47.3489V50.6908C101.688 50.7658 101.679 50.8417 101.655 50.9132C101.631 50.9847 101.591 51.0498 101.538 51.104C101.486 51.1582 101.422 51.2001 101.351 51.2266C101.28 51.2531 101.204 51.2635 101.129 51.2572Z" fill="#1B1E32"/>
<path d="M118.931 42.7652C118.732 42.7754 118.536 42.7083 118.385 42.5778C118.319 42.5108 118.268 42.4309 118.235 42.3431C118.202 42.2554 118.188 42.1617 118.193 42.0681C118.186 41.9743 118.2 41.8801 118.233 41.7921C118.266 41.7041 118.318 41.6243 118.385 41.5583C118.54 41.4359 118.734 41.374 118.931 41.384C119.13 41.3716 119.326 41.4338 119.481 41.5583C119.547 41.6252 119.597 41.7052 119.63 41.7931C119.662 41.8809 119.676 41.9747 119.669 42.0681C119.674 42.1613 119.66 42.2546 119.628 42.3422C119.595 42.4298 119.545 42.51 119.481 42.5778C119.33 42.7102 119.132 42.7775 118.931 42.7652ZM118.931 51.2267C118.851 51.2355 118.77 51.2259 118.694 51.1987C118.619 51.1715 118.55 51.1275 118.494 51.0699C118.399 50.9451 118.349 50.7911 118.355 50.6342V44.922C118.346 44.7645 118.396 44.6094 118.494 44.4863C118.551 44.4292 118.619 44.3858 118.695 44.3593C118.771 44.3329 118.851 44.3241 118.931 44.3338C119.01 44.3269 119.09 44.3369 119.166 44.3632C119.241 44.3895 119.31 44.4314 119.368 44.4863C119.474 44.6057 119.529 44.7623 119.52 44.922V50.6167C119.527 50.7753 119.474 50.9306 119.372 51.0524C119.316 51.1127 119.248 51.1597 119.171 51.1899C119.095 51.2201 119.013 51.2327 118.931 51.2267Z" fill="#1B1E32"/>
<path d="M129.9 51.2834C129.428 51.3005 128.959 51.1986 128.537 50.9871C128.176 50.7836 127.892 50.4665 127.73 50.0852C127.532 49.6154 127.438 49.1086 127.455 48.5994V44.8784C127.444 44.8021 127.451 44.7245 127.475 44.6514C127.5 44.5783 127.54 44.5117 127.594 44.4566C127.648 44.4015 127.714 44.3595 127.786 44.3337C127.859 44.3079 127.937 44.299 128.013 44.3076C128.172 44.2954 128.328 44.3454 128.45 44.4471C128.503 44.5058 128.543 44.5748 128.568 44.6498C128.593 44.7248 128.602 44.8041 128.594 44.8828V48.5994C128.558 49.0735 128.689 49.5453 128.965 49.9327C129.114 50.0879 129.297 50.2077 129.498 50.2831C129.7 50.3585 129.917 50.3877 130.131 50.3684C130.394 50.3773 130.655 50.3297 130.898 50.229C131.14 50.1282 131.358 49.9767 131.537 49.7845C131.911 49.3629 132.106 48.8132 132.083 48.2508V44.8784C132.075 44.7994 132.085 44.7197 132.11 44.6446C132.136 44.5694 132.177 44.5006 132.231 44.4427C132.291 44.3915 132.361 44.3528 132.436 44.3289C132.511 44.3049 132.59 44.2962 132.668 44.3033C132.818 44.2947 132.965 44.3447 133.079 44.4427C133.133 44.5006 133.174 44.5694 133.2 44.6446C133.226 44.7197 133.235 44.7994 133.227 44.8784V50.6734C133.227 51.0612 133.044 51.2572 132.681 51.2572C132.606 51.2615 132.531 51.2501 132.46 51.2239C132.389 51.1976 132.325 51.1571 132.271 51.1047C132.167 50.9842 132.113 50.828 132.122 50.669V49.4011L132.306 49.5972C132.148 50.1032 131.827 50.543 131.393 50.8477C130.953 51.1441 130.431 51.2963 129.9 51.2834Z" fill="#1B1E32"/>
<path d="M141.799 51.2572C141.719 51.2656 141.639 51.2562 141.563 51.2299C141.488 51.2035 141.419 51.1608 141.362 51.1047C141.262 50.982 141.213 50.8266 141.222 50.669V44.8784C141.216 44.8002 141.225 44.7214 141.249 44.6467C141.273 44.5719 141.311 44.5026 141.362 44.4427C141.415 44.3903 141.479 44.35 141.549 44.3245C141.619 44.2989 141.694 44.2887 141.768 44.2945C141.843 44.2897 141.918 44.3004 141.989 44.3259C142.059 44.3514 142.124 44.3911 142.178 44.4427C142.233 44.5007 142.274 44.5696 142.299 44.6447C142.325 44.7198 142.334 44.7994 142.327 44.8784V46.1027L142.174 45.911C142.316 45.4255 142.617 45.0013 143.028 44.706C143.44 44.4107 143.938 44.2612 144.445 44.2815C144.946 44.2576 145.441 44.4018 145.851 44.691C146.235 45.0156 146.489 45.4672 146.567 45.9633H146.357C146.511 45.465 146.828 45.0325 147.257 44.7346C147.703 44.4338 148.233 44.2814 148.772 44.2989C149.211 44.2806 149.647 44.3815 150.034 44.5908C150.372 44.7918 150.634 45.098 150.78 45.4622C150.963 45.9389 151.049 46.4468 151.034 46.9567V50.6908C151.043 50.8497 150.989 51.006 150.885 51.1265C150.827 51.1813 150.759 51.2233 150.683 51.2496C150.608 51.2758 150.528 51.2859 150.449 51.279C150.373 51.2831 150.297 51.2716 150.225 51.2454C150.154 51.2192 150.089 51.1787 150.034 51.1265C149.931 51.0053 149.88 50.8492 149.89 50.6908V47.0134C149.926 46.5336 149.813 46.0545 149.567 45.6409C149.434 45.4857 149.266 45.3649 149.077 45.289C148.887 45.2131 148.682 45.1843 148.479 45.2052C148.232 45.1952 147.985 45.2418 147.758 45.3415C147.531 45.4412 147.329 45.5913 147.169 45.7803C146.83 46.2307 146.66 46.786 146.689 47.3489V50.6908C146.694 50.7696 146.684 50.8487 146.659 50.9235C146.633 50.9983 146.593 51.0673 146.541 51.1265C146.483 51.1813 146.414 51.2233 146.339 51.2496C146.263 51.2758 146.183 51.2859 146.104 51.279C146.029 51.2835 145.953 51.2723 145.883 51.246C145.812 51.2198 145.747 51.1791 145.693 51.1265C145.641 51.0673 145.601 50.9983 145.575 50.9235C145.55 50.8487 145.54 50.7696 145.545 50.6908V47.0134C145.582 46.533 145.468 46.0531 145.218 45.6409C145.085 45.4869 144.918 45.3669 144.729 45.2911C144.541 45.2152 144.337 45.1858 144.135 45.2052C143.887 45.1955 143.64 45.2423 143.413 45.3419C143.186 45.4416 142.985 45.5915 142.825 45.7803C142.485 46.2307 142.315 46.786 142.344 47.3489V50.6908C142.353 50.7654 142.345 50.8409 142.321 50.912C142.297 50.9832 142.257 51.0481 142.205 51.1022C142.153 51.1563 142.089 51.1983 142.019 51.2251C141.949 51.2519 141.874 51.2628 141.799 51.2572Z" fill="#1B1E32"/>
<path d="M170.818 51.2834C170.393 51.2838 169.969 51.2326 169.557 51.1309C169.134 51.0298 168.734 50.851 168.378 50.6037C168.293 50.5456 168.225 50.4659 168.181 50.3727C168.146 50.2889 168.134 50.1971 168.146 50.107C168.161 50.0219 168.2 49.943 168.26 49.8804C168.319 49.8168 168.397 49.7739 168.482 49.7584C168.587 49.7487 168.692 49.7715 168.784 49.8237C169.109 50.0308 169.464 50.1879 169.836 50.29C170.167 50.3759 170.507 50.4199 170.849 50.4207C171.269 50.4505 171.687 50.3484 172.045 50.1287C172.174 50.0411 172.279 49.9226 172.35 49.784C172.421 49.6454 172.456 49.4913 172.452 49.3357C172.457 49.2192 172.436 49.1029 172.39 48.9957C172.344 48.8884 172.274 48.7931 172.185 48.717C171.94 48.532 171.654 48.4093 171.351 48.3597L170.081 48.0809C169.59 48.0113 169.133 47.7939 168.771 47.4578C168.625 47.3027 168.512 47.1206 168.437 46.9217C168.362 46.7228 168.327 46.5112 168.334 46.2988C168.324 45.9142 168.439 45.5367 168.661 45.2226C168.898 44.9061 169.219 44.6617 169.587 44.5168C170.032 44.343 170.507 44.2586 170.984 44.2684C171.379 44.2657 171.771 44.32 172.15 44.4296C172.512 44.5322 172.85 44.7039 173.146 44.935C173.231 44.9909 173.296 45.0715 173.334 45.166C173.364 45.2519 173.364 45.3458 173.334 45.4318C173.313 45.5173 173.268 45.5948 173.203 45.654C173.138 45.7146 173.055 45.7515 172.967 45.7585C172.863 45.7636 172.76 45.7345 172.674 45.6758C172.413 45.4904 172.126 45.3436 171.823 45.24C171.547 45.1548 171.26 45.1107 170.971 45.1093C170.553 45.0801 170.136 45.1871 169.784 45.4143C169.655 45.5063 169.552 45.6283 169.482 45.7696C169.411 45.9109 169.377 46.0672 169.382 46.2248C169.378 46.3428 169.398 46.4604 169.44 46.5705C169.483 46.6806 169.548 46.7809 169.631 46.8653C169.851 47.0577 170.123 47.1832 170.412 47.2269L171.683 47.4883C172.183 47.571 172.652 47.7862 173.041 48.1114C173.192 48.2602 173.308 48.4395 173.384 48.6372C173.459 48.8348 173.491 49.0463 173.478 49.2573C173.484 49.543 173.421 49.826 173.292 50.0813C173.163 50.3365 172.974 50.5564 172.74 50.7213C172.175 51.1058 171.502 51.3025 170.818 51.2834Z" fill="#1B1E32"/>
<path d="M184.184 51.2834C183.542 51.2976 182.906 51.1476 182.337 50.8477C181.827 50.5713 181.41 50.1516 181.136 49.6407C180.859 49.0619 180.715 48.4284 180.715 47.7868C180.715 47.1451 180.859 46.5116 181.136 45.9328C181.398 45.4239 181.795 44.9971 182.285 44.6998C182.798 44.4005 183.385 44.2497 183.979 44.264C184.401 44.2554 184.82 44.334 185.21 44.495C185.565 44.6408 185.882 44.8659 186.136 45.1529C186.402 45.4572 186.601 45.8133 186.721 46.1986C186.863 46.6436 186.932 47.1085 186.927 47.5755C186.931 47.6359 186.922 47.6967 186.9 47.7532C186.879 47.8098 186.844 47.8607 186.8 47.9022C186.695 47.9786 186.567 48.0157 186.437 48.0068H181.578V47.2748H186.167L185.944 47.4578C185.956 47.0217 185.88 46.5876 185.721 46.1812C185.591 45.8546 185.364 45.5751 185.071 45.3795C184.75 45.1863 184.38 45.0909 184.005 45.105C183.579 45.0915 183.157 45.2053 182.796 45.4318C182.465 45.6539 182.205 45.9672 182.049 46.3337C181.876 46.761 181.791 47.2191 181.8 47.68V47.7628C181.749 48.4673 181.971 49.1644 182.42 49.7105C182.648 49.9384 182.921 50.1159 183.222 50.2315C183.523 50.3471 183.845 50.3982 184.167 50.3814C184.485 50.3807 184.803 50.3382 185.11 50.2551C185.436 50.1605 185.744 50.0133 186.023 49.8194C186.127 49.7448 186.252 49.7038 186.381 49.7017C186.475 49.7013 186.567 49.7354 186.638 49.7976C186.703 49.8568 186.749 49.9342 186.769 50.0198C186.794 50.1159 186.784 50.2173 186.743 50.3074C186.691 50.4181 186.606 50.5096 186.499 50.5688C186.17 50.8049 185.802 50.9805 185.411 51.0873C185.013 51.2079 184.6 51.2739 184.184 51.2834Z" fill="#1B1E32"/>
<path d="M195.013 51.2572C194.934 51.2633 194.854 51.2529 194.779 51.2266C194.704 51.2004 194.635 51.1589 194.577 51.1047C194.474 50.9835 194.422 50.8274 194.433 50.669V44.8784C194.426 44.8002 194.435 44.7214 194.459 44.6467C194.483 44.5719 194.522 44.5026 194.572 44.4427C194.625 44.3904 194.689 44.35 194.759 44.3245C194.829 44.2989 194.904 44.2887 194.978 44.2946C195.053 44.29 195.128 44.3008 195.199 44.3263C195.27 44.3517 195.334 44.3914 195.389 44.4427C195.441 44.5017 195.481 44.5708 195.506 44.6457C195.531 44.7206 195.54 44.7998 195.533 44.8784V46.0069H195.393C195.515 45.4956 195.817 45.0453 196.245 44.739C196.702 44.4304 197.243 44.2664 197.795 44.2684C197.914 44.2533 198.034 44.2845 198.131 44.3556C198.178 44.4025 198.214 44.4583 198.238 44.5198C198.262 44.5812 198.273 44.6469 198.271 44.7128C198.278 44.7797 198.272 44.8474 198.253 44.9118C198.233 44.9762 198.201 45.036 198.157 45.0875C198.053 45.1891 197.914 45.2482 197.769 45.2531L197.542 45.2836C196.999 45.3015 196.482 45.517 196.088 45.8893C195.912 46.0809 195.776 46.3056 195.688 46.5502C195.6 46.7949 195.562 47.0546 195.577 47.314V50.6865C195.582 50.7653 195.572 50.8444 195.546 50.9192C195.521 50.994 195.481 51.063 195.428 51.1222C195.372 51.1711 195.306 51.2082 195.234 51.2314C195.163 51.2546 195.088 51.2634 195.013 51.2572Z" fill="#1B1E32"/>
<path d="M208.283 51.2572C208.134 51.2605 207.987 51.2129 207.868 51.1222C207.73 51.016 207.623 50.8745 207.558 50.7126L205.148 45.0875C205.085 44.9688 205.06 44.8331 205.078 44.6998C205.085 44.6426 205.103 44.5873 205.132 44.5372C205.16 44.4871 205.199 44.4431 205.244 44.4078C205.357 44.3268 205.494 44.2868 205.633 44.2945C205.757 44.2878 205.88 44.3231 205.982 44.3948C206.085 44.4886 206.161 44.6071 206.205 44.739L208.493 50.3248H208.117L210.449 44.739C210.492 44.6071 210.569 44.4886 210.672 44.3948C210.778 44.3219 210.906 44.2866 211.034 44.2945C211.158 44.287 211.28 44.3276 211.375 44.4078C211.455 44.4815 211.505 44.5825 211.514 44.691C211.527 44.822 211.506 44.9539 211.453 45.0745L209.012 50.7126C208.963 50.8766 208.862 51.0203 208.724 51.1222C208.596 51.2139 208.441 51.2613 208.283 51.2572Z" fill="#1B1E32"/>
<path d="M219.374 42.7652C219.175 42.7754 218.979 42.7083 218.828 42.5778C218.763 42.5104 218.713 42.4304 218.68 42.3427C218.647 42.2551 218.632 42.1616 218.636 42.0681C218.63 41.9743 218.644 41.8804 218.677 41.7925C218.71 41.7047 218.762 41.6248 218.828 41.5583C218.983 41.4359 219.177 41.374 219.374 41.384C219.573 41.3716 219.769 41.4338 219.924 41.5583C219.99 41.6252 220.041 41.7052 220.073 41.7931C220.105 41.8809 220.119 41.9747 220.112 42.0681C220.117 42.1613 220.103 42.2546 220.071 42.3422C220.038 42.4298 219.989 42.51 219.924 42.5778C219.773 42.7102 219.575 42.7775 219.374 42.7652ZM219.374 51.2267C219.294 51.2355 219.213 51.2259 219.138 51.1987C219.062 51.1715 218.994 51.1275 218.938 51.0699C218.842 50.9451 218.793 50.7911 218.798 50.6342V44.922C218.789 44.7645 218.839 44.6094 218.938 44.4863C218.994 44.4292 219.062 44.3858 219.138 44.3593C219.214 44.3329 219.295 44.3241 219.374 44.3338C219.454 44.3269 219.534 44.3369 219.609 44.3632C219.684 44.3895 219.753 44.4314 219.811 44.4863C219.917 44.6057 219.972 44.7623 219.964 44.922V50.6167C219.97 50.7753 219.917 50.9306 219.815 51.0524C219.76 51.1127 219.691 51.1597 219.615 51.1899C219.538 51.2201 219.456 51.2327 219.374 51.2267Z" fill="#1B1E32"/>
<path d="M230.815 51.2834C230.203 51.2995 229.6 51.1488 229.068 50.8477C228.577 50.5506 228.182 50.1177 227.933 49.6015C227.656 49.0208 227.52 48.3836 227.535 47.741C227.528 47.2498 227.603 46.7609 227.758 46.2945C227.895 45.8874 228.119 45.5144 228.413 45.2008C228.705 44.8981 229.059 44.663 229.452 44.5124C229.892 44.3496 230.358 44.2698 230.828 44.2771C231.182 44.2805 231.535 44.3318 231.876 44.4296C232.24 44.533 232.578 44.7128 232.867 44.9568C232.953 45.0131 233.016 45.098 233.046 45.1965C233.076 45.2839 233.076 45.3792 233.046 45.4666C233.02 45.5518 232.972 45.6286 232.906 45.6888C232.839 45.751 232.753 45.788 232.662 45.7934C232.554 45.799 232.448 45.7649 232.365 45.6975C232.144 45.5218 231.892 45.3888 231.622 45.3054C231.387 45.2343 231.143 45.1976 230.897 45.1965C230.573 45.1887 230.25 45.2481 229.95 45.3708C229.687 45.4801 229.452 45.6486 229.264 45.8631C229.065 46.094 228.916 46.3642 228.828 46.6561C228.722 47.0139 228.672 47.3856 228.679 47.7585C228.64 48.4418 228.839 49.1177 229.243 49.6712C229.441 49.9072 229.692 50.0936 229.976 50.2154C230.259 50.3372 230.567 50.3911 230.876 50.3727C231.12 50.3716 231.363 50.3349 231.596 50.2638C231.866 50.1768 232.118 50.0441 232.343 49.8717C232.425 49.8053 232.529 49.7712 232.635 49.7758C232.724 49.7828 232.807 49.8197 232.871 49.8804C232.938 49.9419 232.984 50.0226 233.002 50.1113C233.028 50.1995 233.028 50.2933 233.002 50.3814C232.968 50.4765 232.904 50.5577 232.819 50.6124C232.532 50.8478 232.201 51.024 231.845 51.1309C231.511 51.2328 231.164 51.2842 230.815 51.2834Z" fill="#1B1E32"/>
<path d="M243.215 51.2834C242.571 51.2975 241.934 51.1476 241.364 50.8477C240.857 50.5802 240.438 50.1715 240.159 49.6712C239.881 49.0924 239.737 48.4589 239.737 47.8173C239.737 47.1756 239.881 46.5421 240.159 45.9633C240.423 45.4563 240.82 45.0302 241.307 44.7303C241.822 44.4305 242.41 44.2796 243.006 44.2945C243.426 44.2865 243.844 44.3651 244.233 44.5255C244.588 44.6713 244.904 44.8964 245.159 45.1834C245.426 45.4874 245.626 45.8435 245.748 46.2291C245.886 46.6749 245.954 47.1394 245.949 47.606C245.954 47.6664 245.945 47.7272 245.923 47.7837C245.901 47.8403 245.866 47.8912 245.822 47.9327C245.718 48.0091 245.589 48.0462 245.46 48.0373H240.595V47.2748H245.185L244.962 47.4578C244.974 47.0217 244.898 46.5876 244.739 46.1812C244.609 45.8546 244.382 45.5751 244.089 45.3795C243.768 45.1858 243.398 45.0903 243.023 45.105C242.598 45.0908 242.178 45.2047 241.818 45.4318C241.485 45.6514 241.225 45.9655 241.071 46.3337C240.894 46.7601 240.808 47.2186 240.818 47.68V47.7628C240.77 48.467 240.991 49.1633 241.438 49.7104C241.669 49.941 241.945 50.12 242.25 50.2357C242.555 50.3514 242.881 50.4011 243.207 50.3814C243.524 50.3804 243.839 50.338 244.145 50.2551C244.473 50.1605 244.783 50.0134 245.062 49.8194C245.165 49.7449 245.289 49.7038 245.416 49.7017C245.511 49.7013 245.602 49.7354 245.674 49.7976C245.738 49.8581 245.785 49.9349 245.809 50.0198C245.832 50.1163 245.821 50.2178 245.779 50.3074C245.728 50.4191 245.642 50.5111 245.534 50.5688C245.205 50.8049 244.837 50.9805 244.447 51.0873C244.047 51.2084 243.633 51.2744 243.215 51.2834Z" fill="#1B1E32"/>
<path d="M255.747 51.2834C255.322 51.2838 254.898 51.2326 254.485 51.1309C254.063 51.0298 253.663 50.851 253.306 50.6037C253.221 50.5456 253.154 50.4659 253.11 50.3727C253.075 50.2889 253.062 50.1971 253.075 50.107C253.09 50.0219 253.129 49.943 253.189 49.8804C253.248 49.8168 253.326 49.7739 253.411 49.7584C253.516 49.7487 253.621 49.7715 253.713 49.8237C254.038 50.0308 254.393 50.1879 254.765 50.29C255.096 50.3759 255.436 50.4199 255.778 50.4207C256.197 50.4505 256.616 50.3484 256.974 50.1287C257.103 50.0411 257.208 49.9226 257.279 49.784C257.35 49.6454 257.385 49.4913 257.38 49.3357C257.386 49.2192 257.365 49.1029 257.319 48.9957C257.273 48.8884 257.203 48.7931 257.114 48.717C256.869 48.532 256.583 48.4093 256.28 48.3597L255.009 48.0809C254.519 48.0113 254.062 47.7939 253.699 47.4578C253.554 47.3027 253.44 47.1206 253.365 46.9217C253.291 46.7228 253.256 46.5112 253.263 46.2988C253.253 45.9142 253.368 45.5367 253.59 45.2226C253.827 44.9061 254.148 44.6617 254.516 44.5168C254.961 44.343 255.436 44.2586 255.913 44.2684C256.306 44.2657 256.697 44.32 257.075 44.4296C257.438 44.5313 257.778 44.703 258.075 44.935C258.16 44.9909 258.225 45.0715 258.262 45.166C258.293 45.2519 258.293 45.3458 258.262 45.4318C258.242 45.5173 258.197 45.5948 258.131 45.654C258.067 45.7146 257.984 45.7515 257.896 45.7585C257.792 45.7636 257.689 45.7345 257.603 45.6758C257.342 45.4904 257.055 45.3436 256.752 45.24C256.469 45.1526 256.174 45.1086 255.878 45.1093C255.46 45.0801 255.043 45.1871 254.691 45.4143C254.562 45.5061 254.457 45.6279 254.387 45.7692C254.316 45.9104 254.281 46.0669 254.285 46.2248C254.281 46.3431 254.302 46.4609 254.345 46.571C254.389 46.6811 254.454 46.7813 254.538 46.8653C254.758 47.0577 255.03 47.1832 255.319 47.2269L256.59 47.4883C257.09 47.571 257.559 47.7862 257.948 48.1114C258.098 48.2607 258.214 48.4401 258.29 48.6376C258.365 48.8351 258.397 49.0464 258.385 49.2573C258.391 49.543 258.328 49.826 258.199 50.0813C258.07 50.3365 257.881 50.5564 257.647 50.7213C257.088 51.1014 256.424 51.2979 255.747 51.2834Z" fill="#1B1E32"/>
<path d="M17.4661 22.8052H40.1721C40.6841 22.8046 41.1913 22.9047 41.6646 23.0997C42.1379 23.2947 42.5681 23.5808 42.9306 23.9417C43.293 24.3026 43.5808 24.7313 43.7772 25.2031C43.9737 25.675 44.0752 26.1808 44.0757 26.6918V31.2232H25.8848C25.3729 31.2226 24.866 31.3227 24.3929 31.5178C23.9199 31.7128 23.49 31.999 23.1278 32.36C22.7657 32.7209 22.4784 33.1496 22.2824 33.6214C22.0864 34.0932 21.9855 34.599 21.9855 35.1097V53.9194H17.4661C16.9523 53.9246 16.4425 53.8282 15.9662 53.6357C15.4899 53.4432 15.0566 53.1584 14.6912 52.7979C14.3258 52.4373 14.0356 52.0081 13.8374 51.535C13.6392 51.0619 13.5368 50.5544 13.5363 50.0416V26.6918C13.5374 26.1788 13.6401 25.671 13.8384 25.1977C14.0367 24.7244 14.3268 24.2949 14.692 23.9337C15.0571 23.5726 15.4902 23.287 15.9662 23.0933C16.4423 22.8997 16.952 22.8018 17.4661 22.8052Z" fill="url(#paint0_linear_44_1108)"/>
<path d="M8.44049 39.066H3.92987C2.89213 39.066 1.8965 38.6565 1.16025 37.9267C0.424009 37.1969 0.00691829 36.2062 0 35.1707H0V11.8383C0 10.7983 0.414039 9.80086 1.15103 9.06546C1.88803 8.33005 2.8876 7.9169 3.92987 7.9169H26.6358C27.6743 7.92266 28.6683 8.33835 29.4005 9.07313C30.1328 9.80791 30.5439 10.8021 30.5438 11.8383V16.361H12.3442C11.3057 16.3668 10.3117 16.7825 9.57943 17.5172C8.84715 18.252 8.43611 19.2462 8.43612 20.2824L8.44049 39.066Z" fill="url(#paint1_linear_44_1108)"/>
<path d="M41.7178 40.225H33.3472C31.8062 40.225 30.5569 41.4715 30.5569 43.0092V51.3618C30.5569 52.8995 31.8062 54.146 33.3472 54.146H41.7178C43.2588 54.146 44.508 52.8995 44.508 51.3618V43.0092C44.508 41.4715 43.2588 40.225 41.7178 40.225Z" fill="url(#paint2_linear_44_1108)"/>
<defs>
<linearGradient id="paint0_linear_44_1108" x1="29.0558" y1="22.6227" x2="29.0558" y2="53.7408" gradientUnits="userSpaceOnUse">
<stop stop-color="#ED6D5F"/>
<stop offset="0.42" stop-color="#EB5E71"/>
<stop offset="1" stop-color="#E7508A"/>
</linearGradient>
<linearGradient id="paint1_linear_44_1108" x1="15.0122" y1="7.76362" x2="15.0122" y2="38.891" gradientUnits="userSpaceOnUse">
<stop stop-color="#ED6D5F"/>
<stop offset="0.42" stop-color="#EB5E71"/>
<stop offset="1" stop-color="#E7508A"/>
</linearGradient>
<linearGradient id="paint2_linear_44_1108" x1="37.5609" y1="40.2381" x2="37.5609" y2="54.1591" gradientUnits="userSpaceOnUse">
<stop stop-color="#ED6D5F"/>
<stop offset="0.42" stop-color="#EB5E71"/>
<stop offset="1" stop-color="#E7508A"/>
</linearGradient>
</defs>
</svg>
