<svg width="283" height="68" viewBox="0 0 283 68" fill="none" xmlns="http://www.w3.org/2000/svg">
<path d="M65.8298 41.4213C65.1962 41.4483 64.5705 41.2727 64.0439 40.9202C63.5335 40.5343 63.1392 40.0158 62.9042 39.4214L52.4245 15.9888C52.1518 15.4508 52.0673 14.8373 52.1844 14.2459C52.3085 13.7569 52.6084 13.3304 53.0271 13.0477C53.4778 12.7489 54.0102 12.5967 54.551 12.612C55.1831 12.5545 55.8146 12.7279 56.3282 13.1C56.7718 13.5135 57.1088 14.0276 57.3107 14.5988L66.8079 36.5282H65.0613L74.5235 14.5378C74.7597 13.987 75.1163 13.4957 75.5671 13.1C76.0498 12.7384 76.6459 12.5607 77.2482 12.5989C77.7708 12.5783 78.2853 12.7316 78.711 13.0346C79.098 13.329 79.3624 13.7558 79.4533 14.2328C79.5418 14.8286 79.4442 15.4372 79.1739 15.9757L68.6942 39.4083C68.4627 39.9941 68.0837 40.5103 67.5938 40.9072C67.0782 41.2669 66.4584 41.4476 65.8298 41.4213Z" fill="#1B1E32"/>
<path d="M87.1864 17.5355C86.3967 17.5847 85.6174 17.3359 85.0031 16.8384C84.7382 16.5914 84.5308 16.2893 84.3958 15.9535C84.2607 15.6177 84.2012 15.2564 84.2215 14.8951C84.1977 14.5315 84.2556 14.1672 84.3908 13.8288C84.526 13.4904 84.7352 13.1863 85.0031 12.9388C85.6488 12.4959 86.4138 12.2588 87.1973 12.2588C87.9808 12.2588 88.7459 12.4959 89.3915 12.9388C89.653 13.1901 89.8565 13.4954 89.9877 13.8333C90.119 14.1711 90.1748 14.5335 90.1513 14.8951C90.1714 15.2544 90.114 15.6138 89.9829 15.9491C89.8518 16.2843 89.6501 16.5876 89.3915 16.8384C88.7715 17.3412 87.9834 17.5903 87.1864 17.5355ZM87.1864 41.369C86.8452 41.391 86.5034 41.338 86.185 41.2138C85.8666 41.0896 85.5794 40.8972 85.3437 40.6501C84.8909 40.0851 84.6652 39.3722 84.7106 38.6502V23.9928C84.6604 23.2621 84.8898 22.5396 85.3524 21.9711C85.5914 21.7296 85.8796 21.5423 86.1976 21.422C86.5156 21.3017 86.8558 21.2512 87.1951 21.2739C87.5375 21.2531 87.8805 21.3045 88.2017 21.4246C88.5229 21.5447 88.8152 21.7309 89.0596 21.9711C89.5306 22.5355 89.7639 23.2603 89.7102 23.9928V38.6502C89.7556 39.3722 89.5299 40.0851 89.0771 40.6501C88.8337 40.9004 88.5383 41.0946 88.2116 41.2188C87.885 41.343 87.535 41.3943 87.1864 41.369Z" fill="#1B1E32"/>
<path d="M97.4827 41.4213C97.1361 41.4627 96.7846 41.425 96.4548 41.3111C96.1249 41.1972 95.8253 41.0101 95.5785 40.7638C95.3317 40.5175 95.1441 40.2185 95.03 39.8894C94.9158 39.5602 94.8781 39.2095 94.9195 38.8637V23.7357C94.8949 23.3951 94.9391 23.053 95.0493 22.7297C95.1596 22.4064 95.3337 22.1084 95.5614 21.8534C96.0708 21.4394 96.7078 21.2134 97.3648 21.2134C98.0218 21.2134 98.6587 21.4394 99.1682 21.8534C99.3959 22.1084 99.57 22.4064 99.6803 22.7297C99.7905 23.053 99.8346 23.3951 99.81 23.7357V26.2541H99.4083C99.6823 24.8168 100.465 23.5255 101.613 22.6159C102.899 21.7203 104.413 21.2066 105.98 21.1345C106.222 21.0994 106.469 21.1204 106.701 21.196C106.934 21.2715 107.146 21.3996 107.32 21.5702C107.693 21.9983 107.899 22.5457 107.901 23.1127C107.941 23.3991 107.921 23.6906 107.842 23.9689C107.763 24.2471 107.627 24.506 107.443 24.7292C107.016 25.1745 106.435 25.4396 105.818 25.4699L104.945 25.5526C103.318 25.7095 102.089 26.2091 101.26 27.0515C100.43 27.8939 100.008 29.0674 99.9934 30.5721V38.8506C100.039 39.5428 99.8103 40.2252 99.3559 40.7503C99.1054 40.9828 98.8102 41.1621 98.4883 41.2775C98.1663 41.3928 97.8242 41.4417 97.4827 41.4213Z" fill="#1B1E32"/>
<path d="M119.245 41.4866C117.409 41.5311 115.591 41.1051 113.966 40.2492C112.479 39.4379 111.264 38.2074 110.473 36.7112C109.61 35.0369 109.182 33.1732 109.229 31.291C109.206 29.8543 109.444 28.4253 109.932 27.0733C110.371 25.8762 111.06 24.7861 111.953 23.8751C112.848 22.9743 113.928 22.2785 115.119 21.836C116.442 21.3531 117.842 21.1154 119.25 21.1345C121.09 21.0897 122.911 21.5173 124.538 22.3763C126.022 23.1818 127.237 24.4044 128.031 25.8925C128.886 27.5609 129.305 29.4178 129.249 31.291C129.27 32.7347 129.032 34.1705 128.546 35.5305C128.11 36.7355 127.421 37.8335 126.524 38.7504C125.63 39.6512 124.55 40.347 123.359 40.7895C122.041 41.269 120.648 41.5053 119.245 41.4866ZM119.245 37.6872C120.181 37.7248 121.105 37.4695 121.888 36.9569C122.671 36.4444 123.274 35.7003 123.612 34.829C124.061 33.7047 124.273 32.5005 124.236 31.291C124.236 29.1603 123.778 27.5656 122.874 26.4981C122.43 25.982 121.875 25.5721 121.251 25.2991C120.627 25.026 119.949 24.8968 119.267 24.9209C118.345 24.8986 117.435 25.1422 116.647 25.6223C115.861 26.1329 115.252 26.8721 114.901 27.7399C114.454 28.8645 114.243 30.0687 114.281 31.2779C114.281 33.3809 114.735 34.9786 115.643 36.0707C116.079 36.5977 116.631 37.0176 117.255 37.2979C117.88 37.5782 118.561 37.7114 119.245 37.6872Z" fill="#1B1E32"/>
<path d="M135.873 41.4213C135.54 41.4384 135.207 41.3877 134.894 41.2724C134.581 41.157 134.294 40.9794 134.052 40.7503C133.825 40.4914 133.652 40.1903 133.542 39.8643C133.431 39.5383 133.387 39.1938 133.41 38.8506V23.7357C133.386 23.3951 133.43 23.053 133.54 22.7297C133.65 22.4064 133.825 22.1084 134.052 21.8534C134.562 21.4394 135.199 21.2134 135.856 21.2134C136.513 21.2134 137.15 21.4394 137.659 21.8534C137.887 22.1084 138.061 22.4064 138.171 22.7297C138.281 23.053 138.326 23.3951 138.301 23.7357V26.4546L137.864 25.4524C138.398 24.1129 139.361 22.9869 140.602 22.2499C141.885 21.508 143.346 21.1284 144.829 21.152C146.18 21.0956 147.522 21.3962 148.719 22.0234C149.754 22.6336 150.557 23.5681 151.003 24.6812C151.554 26.1163 151.812 27.6464 151.763 29.1821V38.8506C151.781 39.1965 151.73 39.5425 151.613 39.8687C151.496 40.1948 151.316 40.4945 151.082 40.7503C150.839 40.9799 150.552 41.1579 150.238 41.2732C149.925 41.3886 149.59 41.439 149.257 41.4213C148.917 41.4415 148.578 41.3937 148.258 41.2807C147.937 41.1677 147.643 40.9918 147.392 40.7634C147.155 40.5069 146.973 40.2051 146.857 39.8763C146.741 39.5475 146.692 39.1985 146.715 38.8506V29.4131C146.715 27.8939 146.424 26.7872 145.842 26.0929C145.266 25.4001 144.379 25.0516 143.174 25.0516C142.527 25.0231 141.881 25.1314 141.279 25.3695C140.677 25.6075 140.133 25.9699 139.681 26.4328C138.78 27.4343 138.31 28.7486 138.371 30.0928V38.8506C138.403 40.5644 137.57 41.4213 135.873 41.4213Z" fill="#1B1E32"/>
<path d="M166.487 41.4867C164.505 41.5405 162.54 41.116 160.758 40.2492C159.202 39.466 157.912 38.2412 157.051 36.7287C156.146 35.0755 155.694 33.2133 155.741 31.3302C155.698 29.4796 156.132 27.649 157.003 26.0145C157.817 24.5244 159.025 23.2856 160.496 22.4329C161.834 21.7014 163.314 21.2674 164.836 21.1606C166.358 21.0538 167.885 21.2768 169.312 21.8142C170.395 22.2496 171.367 22.9193 172.159 23.7749C172.97 24.6707 173.585 25.7259 173.962 26.8729C174.392 28.1935 174.602 29.5757 174.582 30.9642C174.593 31.174 174.553 31.3834 174.466 31.5745C174.379 31.7656 174.246 31.9329 174.08 32.0622C173.661 32.3396 173.163 32.4727 172.661 32.4413H159.815V29.5699H171.072L170.434 30.1712C170.454 29.1174 170.258 28.0707 169.858 27.0951C169.539 26.3199 168.995 25.6581 168.295 25.1954C167.529 24.7314 166.644 24.5012 165.749 24.5331C164.745 24.5023 163.754 24.7692 162.902 25.2999C162.1 25.8341 161.473 26.5917 161.099 27.4785C160.661 28.5494 160.45 29.6991 160.479 30.8553V31.1385C160.479 33.3229 160.992 34.9553 162.02 36.0359C163.048 37.1165 164.564 37.6553 166.57 37.6524C167.358 37.6438 168.143 37.5577 168.915 37.3953C169.777 37.2219 170.607 36.9177 171.377 36.4934C171.815 36.2016 172.331 36.0497 172.858 36.0577C173.245 36.0783 173.612 36.2431 173.884 36.5195C174.13 36.7902 174.283 37.1321 174.32 37.4955C174.369 37.9021 174.293 38.3137 174.102 38.6763C173.866 39.1122 173.512 39.4731 173.08 39.7177C172.085 40.3295 170.994 40.7713 169.853 41.0248C168.752 41.3038 167.623 41.4588 166.487 41.4867Z" fill="#1B1E32"/>
<path d="M188.407 41.4213C188.058 41.4438 187.708 41.393 187.38 41.2722C187.052 41.1514 186.753 40.9632 186.503 40.7198C186.038 40.1844 185.801 39.4884 185.844 38.7809V17.1783H178.028C177.731 17.1945 177.435 17.1503 177.156 17.0484C176.878 16.9465 176.623 16.7891 176.408 16.5857C176.208 16.3762 176.054 16.1282 175.954 15.857C175.854 15.5857 175.811 15.2969 175.827 15.0084C175.808 14.7202 175.849 14.4312 175.949 14.1602C176.049 13.8892 176.206 13.6423 176.408 13.4355C176.858 13.055 177.439 12.863 178.028 12.8996H198.786C199.381 12.8603 199.968 13.0524 200.423 13.4355C200.626 13.6439 200.782 13.8924 200.882 14.1648C200.982 14.4373 201.024 14.7276 201.004 15.0171C201.018 15.3041 200.974 15.591 200.874 15.8605C200.774 16.13 200.621 16.3767 200.423 16.5857C200.207 16.7881 199.951 16.9443 199.672 17.0446C199.392 17.145 199.095 17.1875 198.799 17.1695H190.974V38.7678C191.016 39.4722 190.787 40.166 190.332 40.7067C190.081 40.956 189.779 41.1487 189.447 41.2719C189.115 41.3952 188.76 41.4461 188.407 41.4213Z" fill="#1B1E32"/>
<path d="M209.969 41.4867C207.986 41.5404 206.019 41.1159 204.236 40.2492C202.679 39.466 201.389 38.2412 200.528 36.7287C199.623 35.0755 199.171 33.2133 199.218 31.3302C199.175 29.4796 199.61 27.649 200.48 26.0145C201.294 24.5238 202.502 23.2849 203.974 22.4329C205.312 21.7008 206.793 21.2664 208.316 21.1596C209.838 21.0528 211.366 21.2761 212.794 21.8142C213.875 22.2493 214.847 22.919 215.637 23.7749C216.454 24.6684 217.073 25.7241 217.453 26.8729C217.879 28.1942 218.084 29.5764 218.06 30.9642C218.071 31.1736 218.032 31.3827 217.945 31.5738C217.859 31.765 217.727 31.9325 217.562 32.0622C217.142 32.3396 216.642 32.4727 216.139 32.4413H203.275V29.5699H214.536L213.894 30.1712C213.927 29.1196 213.743 28.0726 213.353 27.0951C213.031 26.3181 212.481 25.6561 211.777 25.1954C211.011 24.7314 210.126 24.5012 209.231 24.5331C208.225 24.502 207.233 24.7688 206.38 25.2999C205.579 25.8353 204.952 26.5925 204.576 27.4785C204.138 28.5494 203.927 29.6991 203.956 30.8553V31.1385C203.956 33.3229 204.47 34.9553 205.497 36.0359C206.525 37.1165 208.036 37.6669 210.03 37.6872C210.818 37.6787 211.604 37.5926 212.375 37.4302C213.237 37.2582 214.068 36.954 214.837 36.5282C215.277 36.2372 215.795 36.0853 216.322 36.0925C216.709 36.1121 217.074 36.2771 217.344 36.5544C217.59 36.8251 217.743 37.167 217.781 37.5304C217.831 37.937 217.755 38.3493 217.562 38.7112C217.34 39.1483 216.999 39.5149 216.58 39.7699C215.585 40.3822 214.494 40.824 213.353 41.0771C212.244 41.3401 211.109 41.4775 209.969 41.4867Z" fill="#1B1E32"/>
<path d="M231.085 41.4867C229.216 41.5327 227.367 41.0991 225.714 40.2274C224.211 39.409 222.985 38.1641 222.191 36.6502C221.329 34.9691 220.902 33.1001 220.946 31.2125C220.924 29.7758 221.162 28.3469 221.649 26.9949C222.081 25.8059 222.772 24.7272 223.671 23.8359C224.585 22.9494 225.677 22.2676 226.876 21.836C228.226 21.3532 229.651 21.1156 231.085 21.1345C232.051 21.1457 233.012 21.267 233.95 21.4962C234.976 21.7328 235.957 22.1346 236.853 22.6857C237.235 22.9004 237.532 23.2385 237.696 23.6442C237.831 24.0095 237.858 24.4056 237.775 24.7858C237.704 25.1577 237.532 25.5029 237.277 25.7836C237.03 26.0586 236.698 26.2428 236.334 26.3064C235.903 26.3607 235.466 26.2686 235.094 26.045C234.529 25.7087 233.923 25.4466 233.29 25.2651C232.723 25.0987 232.135 25.0107 231.544 25.0036C230.748 24.9905 229.958 25.1388 229.221 25.4394C228.57 25.7054 227.987 26.115 227.518 26.6376C227.024 27.1981 226.661 27.86 226.452 28.5765C226.2 29.4468 226.079 30.3501 226.094 31.2561C226.094 33.2314 226.569 34.7839 227.518 35.9139C228.467 37.0438 229.809 37.6103 231.544 37.6132C232.134 37.6102 232.721 37.5296 233.29 37.3735C233.92 37.2 234.525 36.9497 235.094 36.6285C235.459 36.4036 235.893 36.3184 236.316 36.3888C236.669 36.4627 236.986 36.6531 237.216 36.9291C237.457 37.2115 237.609 37.5586 237.652 37.9269C237.704 38.3131 237.656 38.7061 237.513 39.0684C237.35 39.4581 237.061 39.7819 236.692 39.9878C235.821 40.5157 234.874 40.9066 233.884 41.1468C232.968 41.3707 232.028 41.4848 231.085 41.4867Z" fill="#1B1E32"/>
<path d="M243.425 41.4213C243.089 41.4428 242.752 41.3956 242.436 41.2824C242.119 41.1693 241.828 40.9926 241.582 40.7634C241.355 40.5044 241.182 40.2033 241.072 39.8773C240.962 39.5514 240.917 39.2069 240.941 38.8637V15.0955C240.916 14.7556 240.961 14.4142 241.071 14.0917C241.181 13.7691 241.355 13.4719 241.582 13.2176C241.831 12.9929 242.122 12.8204 242.438 12.7104C242.755 12.6003 243.091 12.555 243.425 12.5771C243.763 12.5558 244.102 12.6014 244.422 12.7113C244.742 12.8212 245.037 12.9933 245.29 13.2176C245.522 13.469 245.701 13.7653 245.814 14.0883C245.928 14.4113 245.974 14.7542 245.949 15.0955V25.4524H245.399C245.932 24.1129 246.895 22.9869 248.137 22.2499C249.424 21.497 250.893 21.1111 252.385 21.1345C253.735 21.0781 255.076 21.3787 256.271 22.0059C257.306 22.6162 258.109 23.5507 258.555 24.6638C259.106 26.0988 259.364 27.6289 259.315 29.1647V38.8506C259.361 39.5428 259.132 40.2252 258.677 40.7503C258.429 40.985 258.135 41.1659 257.813 41.2814C257.492 41.3969 257.15 41.4445 256.808 41.4213C256.47 41.4414 256.131 41.3936 255.812 41.2806C255.492 41.1675 255.198 40.9917 254.948 40.7634C254.716 40.5074 254.537 40.2072 254.423 39.8809C254.309 39.5545 254.262 39.2085 254.285 38.8637V29.413C254.285 27.8924 254.001 26.7988 253.411 26.0929C252.822 25.3871 251.949 25.0516 250.748 25.0516C250.101 25.0228 249.455 25.131 248.853 25.3691C248.251 25.6071 247.706 25.9696 247.255 26.4328C246.353 27.4335 245.882 28.7484 245.945 30.0928V38.8506C245.949 40.5499 245.111 41.4213 243.425 41.4213Z" fill="#1B1E32"/>
<path d="M62.9697 60.7626C62.8904 60.7715 62.8102 60.7628 62.7347 60.7372C62.6592 60.7116 62.5904 60.6697 62.533 60.6144C62.4809 60.5553 62.4415 60.4861 62.4175 60.4112C62.3934 60.3362 62.3852 60.257 62.3933 60.1787V51.8784C62.3854 51.8001 62.3938 51.721 62.4178 51.6461C62.4419 51.5711 62.4811 51.5019 62.533 51.4427C62.5856 51.3909 62.6486 51.3509 62.7179 51.3254C62.7871 51.2998 62.8611 51.2893 62.9347 51.2945C63.0138 51.2874 63.0936 51.2968 63.1688 51.3224C63.244 51.3479 63.313 51.3889 63.3714 51.4427C63.4238 51.5017 63.4637 51.5708 63.4885 51.6457C63.5132 51.7206 63.5224 51.7998 63.5155 51.8784V53.1855L63.3626 52.9895C63.4961 52.4802 63.8053 52.0343 64.2359 51.7303C64.702 51.4125 65.2567 51.2493 65.821 51.264C66.3789 51.2545 66.9278 51.4058 67.4017 51.6997C67.8629 51.9917 68.2275 52.4131 68.4496 52.911C68.9443 54.1068 68.9443 55.4493 68.4496 56.6451C68.2291 57.1503 67.8612 57.5776 67.394 57.8713C66.9267 58.1651 66.3816 58.3117 65.8297 58.2921C65.2678 58.3095 64.7151 58.146 64.2534 57.8259C63.8208 57.5251 63.5048 57.0852 63.3583 56.5797H63.5286V60.2005C63.5361 60.2802 63.5259 60.3606 63.4987 60.4359C63.4715 60.5112 63.428 60.5796 63.3714 60.6362C63.2589 60.7286 63.1149 60.7739 62.9697 60.7626ZM65.5896 57.3814C65.9832 57.3904 66.3707 57.2828 66.703 57.0721C67.0227 56.8563 67.2742 56.554 67.4279 56.2007C67.6095 55.7541 67.6972 55.2751 67.6855 54.7933C67.734 54.1015 67.5327 53.4152 67.1179 52.8587C66.9312 52.6384 66.6963 52.4637 66.4314 52.3482C66.1664 52.2326 65.8784 52.1792 65.5896 52.1921C65.2018 52.1828 64.8196 52.2857 64.4892 52.4884C64.1639 52.7003 63.9087 53.0035 63.7556 53.3598C63.5716 53.8118 63.4839 54.297 63.498 54.7846C63.4537 55.4753 63.6564 56.1592 64.07 56.7148C64.2578 56.935 64.4935 57.1095 64.7591 57.225C65.0247 57.3405 65.3132 57.394 65.6027 57.3814H65.5896Z" fill="#1B1E32"/>
<path d="M77.0037 58.2572C76.9242 58.2644 76.8441 58.2545 76.7688 58.2282C76.6935 58.2019 76.6247 58.1598 76.5671 58.1047C76.5146 58.0455 76.4745 57.9765 76.4491 57.9017C76.4236 57.8269 76.4132 57.7478 76.4186 57.669V51.8784C76.412 51.8002 76.421 51.7214 76.445 51.6466C76.4689 51.5719 76.5075 51.5026 76.5583 51.4427C76.6114 51.3903 76.6751 51.35 76.7452 51.3245C76.8153 51.2989 76.89 51.2887 76.9644 51.2945C77.0394 51.2897 77.1145 51.3004 77.1851 51.3259C77.2557 51.3514 77.3203 51.3911 77.3749 51.4427C77.4273 51.5017 77.4672 51.5708 77.492 51.6457C77.5167 51.7206 77.5259 51.7998 77.519 51.8784V53.0069H77.3836C77.5063 52.4974 77.8066 52.048 78.2307 51.739C78.6886 51.4309 79.2286 51.2669 79.7808 51.2684C79.9 51.2523 80.0208 51.2836 80.117 51.3555C80.1635 51.4024 80.1999 51.4583 80.2239 51.5198C80.2479 51.5812 80.2591 51.6469 80.2568 51.7128C80.2643 51.7797 80.2581 51.8474 80.2386 51.9118C80.219 51.9762 80.1866 52.036 80.1432 52.0875C80.0389 52.1891 79.9003 52.2481 79.7546 52.2531L79.5319 52.2836C78.988 52.3009 78.4691 52.5163 78.0735 52.8892C77.8976 53.0808 77.7618 53.3056 77.6741 53.5502C77.5863 53.7949 77.5485 54.0546 77.5626 54.314V57.6864C77.568 57.7653 77.5576 57.8444 77.5322 57.9191C77.5067 57.9939 77.4666 58.0629 77.4142 58.1222C77.3582 58.1707 77.293 58.2077 77.2225 58.2309C77.1521 58.2541 77.0777 58.263 77.0037 58.2572Z" fill="#1B1E32"/>
<path d="M90.2866 58.2834C89.6437 58.2976 89.0079 58.1476 88.4395 57.8477C87.9286 57.5726 87.5107 57.1526 87.2387 56.6407C86.96 56.0623 86.8153 55.4286 86.8153 54.7868C86.8153 54.1449 86.96 53.5113 87.2387 52.9328C87.5032 52.4246 87.9018 51.9983 88.3915 51.6998C88.9046 51.4001 89.4914 51.2492 90.0857 51.264C90.5063 51.256 90.924 51.3346 91.3127 51.495C91.6683 51.6418 91.9862 51.8667 92.2428 52.1529C92.5068 52.4583 92.7059 52.8141 92.8279 53.1986C92.9683 53.6439 93.0361 54.1087 93.0288 54.5755C93.0344 54.6356 93.0263 54.6962 93.0051 54.7528C92.9839 54.8094 92.9502 54.8605 92.9065 54.9022C92.8001 54.9786 92.6704 55.0156 92.5397 55.0068H87.6798V54.2748H92.269L92.0463 54.4578C92.0591 54.0212 91.9818 53.5867 91.8192 53.1812C91.6896 52.8551 91.4643 52.5757 91.173 52.3795C90.8506 52.1864 90.4789 52.091 90.1032 52.105C89.6779 52.0921 89.2583 52.2059 88.898 52.4318C88.5646 52.6514 88.3046 52.9655 88.1513 53.3337C87.9778 53.761 87.8931 54.2191 87.9024 54.68V54.7628C87.8516 55.4673 88.0735 56.1644 88.5225 56.7104C88.7498 56.9388 89.0229 57.1167 89.3239 57.2323C89.6249 57.3479 89.947 57.3988 90.2691 57.3814C90.5876 57.3802 90.9047 57.3377 91.2123 57.2551C91.5382 57.1605 91.8465 57.0133 92.1249 56.8194C92.2281 56.7454 92.3515 56.7044 92.4786 56.7017C92.5747 56.7006 92.6679 56.7347 92.7406 56.7976C92.8107 56.86 92.8587 56.9433 92.8776 57.0352C92.8965 57.127 92.8852 57.2225 92.8454 57.3074C92.7923 57.4172 92.707 57.5084 92.6008 57.5688C92.2702 57.8041 91.9007 57.9796 91.5092 58.0873C91.1126 58.2082 90.7012 58.2742 90.2866 58.2834Z" fill="#1B1E32"/>
<path d="M101.129 58.2572C101.049 58.2656 100.969 58.2562 100.893 58.2299C100.818 58.2035 100.749 58.1608 100.692 58.1047C100.593 57.982 100.543 57.8266 100.552 57.669V51.8784C100.546 51.8002 100.555 51.7214 100.579 51.6467C100.603 51.5719 100.641 51.5026 100.692 51.4427C100.745 51.3904 100.809 51.35 100.879 51.3245C100.949 51.2989 101.024 51.2887 101.098 51.2945C101.173 51.29 101.248 51.3008 101.319 51.3263C101.389 51.3517 101.454 51.3914 101.509 51.4427C101.561 51.5017 101.601 51.5708 101.626 51.6457C101.651 51.7206 101.66 51.7998 101.653 51.8784V53.1028L101.5 52.911C101.643 52.4256 101.945 52.0017 102.357 51.7065C102.769 51.4114 103.268 51.2618 103.775 51.2815C104.275 51.2576 104.768 51.4018 105.177 51.691C105.563 52.0139 105.819 52.4661 105.897 52.9633H105.687C105.84 52.4643 106.157 52.0313 106.587 51.7346C107.033 51.4338 107.564 51.2814 108.102 51.2989C108.541 51.281 108.977 51.3819 109.364 51.5908C109.7 51.7942 109.962 52.0996 110.111 52.4623C110.291 52.9392 110.376 53.4471 110.36 53.9567V57.6908C110.37 57.8492 110.318 58.0053 110.215 58.1265C110.157 58.1807 110.088 58.2222 110.013 58.2484C109.938 58.2746 109.858 58.2851 109.779 58.279C109.704 58.2833 109.628 58.2719 109.558 58.2457C109.487 58.2194 109.423 58.1788 109.368 58.1265C109.264 58.006 109.211 57.8498 109.22 57.6908V54.0134C109.257 53.5341 109.146 53.055 108.901 52.6409C108.769 52.4857 108.601 52.3649 108.412 52.289C108.222 52.2131 108.017 52.1843 107.814 52.2052C107.566 52.1949 107.319 52.2413 107.092 52.341C106.865 52.4407 106.664 52.591 106.504 52.7803C106.162 53.2297 105.992 53.7857 106.024 54.3489V57.6908C106.033 57.8498 105.979 58.006 105.875 58.1265C105.817 58.1813 105.749 58.2233 105.673 58.2496C105.598 58.2759 105.518 58.2859 105.439 58.279C105.363 58.2831 105.287 58.2717 105.215 58.2454C105.144 58.2192 105.079 58.1787 105.024 58.1265C104.921 58.0053 104.869 57.8492 104.88 57.6908V54.0134C104.917 53.533 104.802 53.0531 104.552 52.6409C104.42 52.4869 104.252 52.3669 104.064 52.2911C103.876 52.2152 103.672 52.1858 103.469 52.2052C103.221 52.1952 102.975 52.2418 102.748 52.3415C102.521 52.4412 102.319 52.5913 102.159 52.7803C101.82 53.2307 101.65 53.786 101.679 54.3489V57.6908C101.688 57.7658 101.679 57.8417 101.655 57.9132C101.631 57.9847 101.591 58.0498 101.538 58.104C101.486 58.1582 101.422 58.2001 101.351 58.2266C101.28 58.2531 101.204 58.2635 101.129 58.2572Z" fill="#1B1E32"/>
<path d="M118.931 49.7652C118.732 49.7754 118.536 49.7083 118.385 49.5778C118.319 49.5108 118.268 49.4309 118.235 49.3431C118.202 49.2554 118.188 49.1617 118.193 49.0681C118.186 48.9743 118.2 48.8801 118.233 48.7921C118.266 48.7041 118.318 48.6243 118.385 48.5583C118.54 48.4359 118.734 48.374 118.931 48.384C119.13 48.3716 119.326 48.4338 119.481 48.5583C119.547 48.6252 119.597 48.7052 119.63 48.7931C119.662 48.8809 119.676 48.9747 119.669 49.0681C119.674 49.1613 119.66 49.2546 119.628 49.3422C119.595 49.4298 119.545 49.51 119.481 49.5778C119.33 49.7102 119.132 49.7775 118.931 49.7652ZM118.931 58.2267C118.851 58.2355 118.77 58.2259 118.694 58.1987C118.619 58.1715 118.55 58.1275 118.494 58.0699C118.399 57.9451 118.349 57.7911 118.355 57.6342V51.922C118.346 51.7645 118.396 51.6094 118.494 51.4863C118.551 51.4292 118.619 51.3858 118.695 51.3593C118.771 51.3329 118.851 51.3241 118.931 51.3338C119.01 51.3269 119.09 51.3369 119.166 51.3632C119.241 51.3895 119.31 51.4314 119.368 51.4863C119.474 51.6057 119.529 51.7623 119.52 51.922V57.6167C119.527 57.7753 119.474 57.9306 119.372 58.0524C119.316 58.1127 119.248 58.1597 119.171 58.1899C119.095 58.2201 119.013 58.2327 118.931 58.2267Z" fill="#1B1E32"/>
<path d="M129.9 58.2834C129.428 58.3005 128.959 58.1986 128.537 57.9871C128.176 57.7836 127.892 57.4665 127.73 57.0852C127.532 56.6154 127.438 56.1086 127.455 55.5994V51.8784C127.444 51.8021 127.451 51.7245 127.475 51.6514C127.5 51.5783 127.54 51.5117 127.594 51.4566C127.648 51.4015 127.714 51.3595 127.786 51.3337C127.859 51.3079 127.937 51.299 128.013 51.3076C128.172 51.2954 128.328 51.3454 128.45 51.4471C128.503 51.5058 128.543 51.5748 128.568 51.6498C128.593 51.7248 128.602 51.8041 128.594 51.8828V55.5994C128.558 56.0735 128.689 56.5453 128.965 56.9327C129.114 57.0879 129.297 57.2077 129.498 57.2831C129.7 57.3585 129.917 57.3877 130.131 57.3684C130.394 57.3773 130.655 57.3297 130.898 57.229C131.14 57.1282 131.358 56.9767 131.537 56.7845C131.911 56.3629 132.106 55.8132 132.083 55.2508V51.8784C132.075 51.7994 132.085 51.7197 132.11 51.6446C132.136 51.5694 132.177 51.5006 132.231 51.4427C132.291 51.3915 132.361 51.3528 132.436 51.3289C132.511 51.3049 132.59 51.2962 132.668 51.3033C132.818 51.2947 132.965 51.3447 133.079 51.4427C133.133 51.5006 133.174 51.5694 133.2 51.6446C133.226 51.7197 133.235 51.7994 133.227 51.8784V57.6734C133.227 58.0612 133.044 58.2572 132.681 58.2572C132.606 58.2615 132.531 58.2501 132.46 58.2239C132.389 58.1976 132.325 58.1571 132.271 58.1047C132.167 57.9842 132.113 57.828 132.122 57.669V56.4011L132.306 56.5972C132.148 57.1032 131.827 57.543 131.393 57.8477C130.953 58.1441 130.431 58.2963 129.9 58.2834Z" fill="#1B1E32"/>
<path d="M141.799 58.2572C141.719 58.2656 141.639 58.2562 141.563 58.2299C141.488 58.2035 141.419 58.1608 141.362 58.1047C141.262 57.982 141.213 57.8266 141.222 57.669V51.8784C141.216 51.8002 141.225 51.7214 141.249 51.6467C141.273 51.5719 141.311 51.5026 141.362 51.4427C141.415 51.3903 141.479 51.35 141.549 51.3245C141.619 51.2989 141.694 51.2887 141.768 51.2945C141.843 51.2897 141.918 51.3004 141.989 51.3259C142.059 51.3514 142.124 51.3911 142.178 51.4427C142.233 51.5007 142.274 51.5696 142.299 51.6447C142.325 51.7198 142.334 51.7994 142.327 51.8784V53.1027L142.174 52.911C142.316 52.4255 142.617 52.0013 143.028 51.706C143.44 51.4107 143.938 51.2612 144.445 51.2815C144.946 51.2576 145.441 51.4018 145.851 51.691C146.235 52.0156 146.489 52.4672 146.567 52.9633H146.357C146.511 52.465 146.828 52.0325 147.257 51.7346C147.703 51.4338 148.233 51.2814 148.772 51.2989C149.211 51.2806 149.647 51.3815 150.034 51.5908C150.372 51.7918 150.634 52.098 150.78 52.4622C150.963 52.9389 151.049 53.4468 151.034 53.9567V57.6908C151.043 57.8497 150.989 58.006 150.885 58.1265C150.827 58.1813 150.759 58.2233 150.683 58.2496C150.608 58.2758 150.528 58.2859 150.449 58.279C150.373 58.2831 150.297 58.2716 150.225 58.2454C150.154 58.2192 150.089 58.1787 150.034 58.1265C149.931 58.0053 149.88 57.8492 149.89 57.6908V54.0134C149.926 53.5336 149.813 53.0545 149.567 52.6409C149.434 52.4857 149.266 52.3649 149.077 52.289C148.887 52.2131 148.682 52.1843 148.479 52.2052C148.232 52.1952 147.985 52.2418 147.758 52.3415C147.531 52.4412 147.329 52.5913 147.169 52.7803C146.83 53.2307 146.66 53.786 146.689 54.3489V57.6908C146.694 57.7696 146.684 57.8487 146.659 57.9235C146.633 57.9983 146.593 58.0673 146.541 58.1265C146.483 58.1813 146.414 58.2233 146.339 58.2496C146.263 58.2758 146.183 58.2859 146.104 58.279C146.029 58.2835 145.953 58.2723 145.883 58.246C145.812 58.2198 145.747 58.1791 145.693 58.1265C145.641 58.0673 145.601 57.9983 145.575 57.9235C145.55 57.8487 145.54 57.7696 145.545 57.6908V54.0134C145.582 53.533 145.468 53.0531 145.218 52.6409C145.085 52.4869 144.918 52.3669 144.729 52.2911C144.541 52.2152 144.337 52.1858 144.135 52.2052C143.887 52.1955 143.64 52.2423 143.413 52.3419C143.186 52.4416 142.985 52.5915 142.825 52.7803C142.485 53.2307 142.315 53.786 142.344 54.3489V57.6908C142.353 57.7654 142.345 57.8409 142.321 57.912C142.297 57.9832 142.257 58.0481 142.205 58.1022C142.153 58.1563 142.089 58.1983 142.019 58.2251C141.949 58.2519 141.874 58.2628 141.799 58.2572Z" fill="#1B1E32"/>
<path d="M170.818 58.2834C170.393 58.2838 169.969 58.2326 169.557 58.1309C169.134 58.0298 168.734 57.851 168.378 57.6037C168.293 57.5456 168.225 57.4659 168.181 57.3727C168.146 57.2889 168.134 57.1971 168.146 57.107C168.161 57.0219 168.2 56.943 168.26 56.8804C168.319 56.8168 168.397 56.7739 168.482 56.7584C168.587 56.7487 168.692 56.7715 168.784 56.8237C169.109 57.0308 169.464 57.1879 169.836 57.29C170.167 57.3759 170.507 57.4199 170.849 57.4207C171.269 57.4505 171.687 57.3484 172.045 57.1287C172.174 57.0411 172.279 56.9226 172.35 56.784C172.421 56.6454 172.456 56.4913 172.452 56.3357C172.457 56.2192 172.436 56.1029 172.39 55.9957C172.344 55.8884 172.274 55.7931 172.185 55.717C171.94 55.532 171.654 55.4093 171.351 55.3597L170.081 55.0809C169.59 55.0113 169.133 54.7939 168.771 54.4578C168.625 54.3027 168.512 54.1206 168.437 53.9217C168.362 53.7228 168.327 53.5112 168.334 53.2988C168.324 52.9142 168.439 52.5367 168.661 52.2226C168.898 51.9061 169.219 51.6617 169.587 51.5168C170.032 51.343 170.507 51.2586 170.984 51.2684C171.379 51.2657 171.771 51.32 172.15 51.4296C172.512 51.5322 172.85 51.7039 173.146 51.935C173.231 51.9909 173.296 52.0715 173.334 52.166C173.364 52.2519 173.364 52.3458 173.334 52.4318C173.313 52.5173 173.268 52.5948 173.203 52.654C173.138 52.7146 173.055 52.7515 172.967 52.7585C172.863 52.7636 172.76 52.7345 172.674 52.6758C172.413 52.4904 172.126 52.3436 171.823 52.24C171.547 52.1548 171.26 52.1107 170.971 52.1093C170.553 52.0801 170.136 52.1871 169.784 52.4143C169.655 52.5063 169.552 52.6283 169.482 52.7696C169.411 52.9109 169.377 53.0672 169.382 53.2248C169.378 53.3428 169.398 53.4604 169.44 53.5705C169.483 53.6806 169.548 53.7809 169.631 53.8653C169.851 54.0577 170.123 54.1832 170.412 54.2269L171.683 54.4883C172.183 54.571 172.652 54.7862 173.041 55.1114C173.192 55.2602 173.308 55.4395 173.384 55.6372C173.459 55.8348 173.491 56.0463 173.478 56.2573C173.484 56.543 173.421 56.826 173.292 57.0813C173.163 57.3365 172.974 57.5564 172.74 57.7213C172.175 58.1058 171.502 58.3025 170.818 58.2834Z" fill="#1B1E32"/>
<path d="M184.184 58.2834C183.542 58.2976 182.906 58.1476 182.337 57.8477C181.827 57.5713 181.41 57.1516 181.136 56.6407C180.859 56.0619 180.715 55.4284 180.715 54.7868C180.715 54.1451 180.859 53.5116 181.136 52.9328C181.398 52.4239 181.795 51.9971 182.285 51.6998C182.798 51.4005 183.385 51.2497 183.979 51.264C184.401 51.2554 184.82 51.334 185.21 51.495C185.565 51.6408 185.882 51.8659 186.136 52.1529C186.402 52.4572 186.601 52.8133 186.721 53.1986C186.863 53.6436 186.932 54.1085 186.927 54.5755C186.931 54.6359 186.922 54.6967 186.9 54.7532C186.879 54.8098 186.844 54.8607 186.8 54.9022C186.695 54.9786 186.567 55.0157 186.437 55.0068H181.578V54.2748H186.167L185.944 54.4578C185.956 54.0217 185.88 53.5876 185.721 53.1812C185.591 52.8546 185.364 52.5751 185.071 52.3795C184.75 52.1863 184.38 52.0909 184.005 52.105C183.579 52.0915 183.157 52.2053 182.796 52.4318C182.465 52.6539 182.205 52.9672 182.049 53.3337C181.876 53.761 181.791 54.2191 181.8 54.68V54.7628C181.749 55.4673 181.971 56.1644 182.42 56.7105C182.648 56.9384 182.921 57.1159 183.222 57.2315C183.523 57.3471 183.845 57.3982 184.167 57.3814C184.485 57.3807 184.803 57.3382 185.11 57.2551C185.436 57.1605 185.744 57.0133 186.023 56.8194C186.127 56.7448 186.252 56.7038 186.381 56.7017C186.475 56.7013 186.567 56.7354 186.638 56.7976C186.703 56.8568 186.749 56.9342 186.769 57.0198C186.794 57.1159 186.784 57.2173 186.743 57.3074C186.691 57.4181 186.606 57.5096 186.499 57.5688C186.17 57.8049 185.802 57.9805 185.411 58.0873C185.013 58.2079 184.6 58.2739 184.184 58.2834Z" fill="#1B1E32"/>
<path d="M195.013 58.2572C194.934 58.2633 194.854 58.2529 194.779 58.2266C194.704 58.2004 194.635 58.1589 194.577 58.1047C194.474 57.9835 194.422 57.8274 194.433 57.669V51.8784C194.426 51.8002 194.435 51.7214 194.459 51.6467C194.483 51.5719 194.522 51.5026 194.572 51.4427C194.625 51.3904 194.689 51.35 194.759 51.3245C194.829 51.2989 194.904 51.2887 194.978 51.2946C195.053 51.29 195.128 51.3008 195.199 51.3263C195.27 51.3517 195.334 51.3914 195.389 51.4427C195.441 51.5017 195.481 51.5708 195.506 51.6457C195.531 51.7206 195.54 51.7998 195.533 51.8784V53.0069H195.393C195.515 52.4956 195.817 52.0453 196.245 51.739C196.702 51.4304 197.243 51.2664 197.795 51.2684C197.914 51.2533 198.034 51.2845 198.131 51.3556C198.178 51.4025 198.214 51.4583 198.238 51.5198C198.262 51.5812 198.273 51.6469 198.271 51.7128C198.278 51.7797 198.272 51.8474 198.253 51.9118C198.233 51.9762 198.201 52.036 198.157 52.0875C198.053 52.1891 197.914 52.2482 197.769 52.2531L197.542 52.2836C196.999 52.3015 196.482 52.517 196.088 52.8893C195.912 53.0809 195.776 53.3056 195.688 53.5502C195.6 53.7949 195.562 54.0546 195.577 54.314V57.6865C195.582 57.7653 195.572 57.8444 195.546 57.9192C195.521 57.994 195.481 58.063 195.428 58.1222C195.372 58.1711 195.306 58.2082 195.234 58.2314C195.163 58.2546 195.088 58.2634 195.013 58.2572Z" fill="#1B1E32"/>
<path d="M208.283 58.2572C208.134 58.2605 207.987 58.2129 207.868 58.1222C207.73 58.016 207.623 57.8745 207.558 57.7126L205.148 52.0875C205.085 51.9688 205.06 51.8331 205.078 51.6998C205.085 51.6426 205.103 51.5873 205.132 51.5372C205.16 51.4871 205.199 51.4431 205.244 51.4078C205.357 51.3268 205.494 51.2868 205.633 51.2945C205.757 51.2878 205.88 51.3231 205.982 51.3948C206.085 51.4886 206.161 51.6071 206.205 51.739L208.493 57.3248H208.117L210.449 51.739C210.492 51.6071 210.569 51.4886 210.672 51.3948C210.778 51.3219 210.906 51.2866 211.034 51.2945C211.158 51.287 211.28 51.3276 211.375 51.4078C211.455 51.4815 211.505 51.5825 211.514 51.691C211.527 51.822 211.506 51.9539 211.453 52.0745L209.012 57.7126C208.963 57.8766 208.862 58.0203 208.724 58.1222C208.596 58.2139 208.441 58.2613 208.283 58.2572Z" fill="#1B1E32"/>
<path d="M219.374 49.7652C219.175 49.7754 218.979 49.7083 218.828 49.5778C218.763 49.5104 218.713 49.4304 218.68 49.3427C218.647 49.2551 218.632 49.1616 218.636 49.0681C218.63 48.9743 218.644 48.8804 218.677 48.7925C218.71 48.7047 218.762 48.6248 218.828 48.5583C218.983 48.4359 219.177 48.374 219.374 48.384C219.573 48.3716 219.769 48.4338 219.924 48.5583C219.99 48.6252 220.041 48.7052 220.073 48.7931C220.105 48.8809 220.119 48.9747 220.112 49.0681C220.117 49.1613 220.103 49.2546 220.071 49.3422C220.038 49.4298 219.989 49.51 219.924 49.5778C219.773 49.7102 219.575 49.7775 219.374 49.7652ZM219.374 58.2267C219.294 58.2355 219.213 58.2259 219.138 58.1987C219.062 58.1715 218.994 58.1275 218.938 58.0699C218.842 57.9451 218.793 57.7911 218.798 57.6342V51.922C218.789 51.7645 218.839 51.6094 218.938 51.4863C218.994 51.4292 219.062 51.3858 219.138 51.3593C219.214 51.3329 219.295 51.3241 219.374 51.3338C219.454 51.3269 219.534 51.3369 219.609 51.3632C219.684 51.3895 219.753 51.4314 219.811 51.4863C219.917 51.6057 219.972 51.7623 219.964 51.922V57.6167C219.97 57.7753 219.917 57.9306 219.815 58.0524C219.76 58.1127 219.691 58.1597 219.615 58.1899C219.538 58.2201 219.456 58.2327 219.374 58.2267Z" fill="#1B1E32"/>
<path d="M230.815 58.2834C230.203 58.2995 229.6 58.1488 229.068 57.8477C228.577 57.5506 228.182 57.1177 227.933 56.6015C227.656 56.0208 227.52 55.3836 227.535 54.741C227.528 54.2498 227.603 53.7609 227.758 53.2945C227.895 52.8874 228.119 52.5144 228.413 52.2008C228.705 51.8981 229.059 51.663 229.452 51.5124C229.892 51.3496 230.358 51.2698 230.828 51.2771C231.182 51.2805 231.535 51.3318 231.876 51.4296C232.24 51.533 232.578 51.7128 232.867 51.9568C232.953 52.0131 233.016 52.098 233.046 52.1965C233.076 52.2839 233.076 52.3792 233.046 52.4666C233.02 52.5518 232.972 52.6286 232.906 52.6888C232.839 52.751 232.753 52.788 232.662 52.7934C232.554 52.799 232.448 52.7649 232.365 52.6975C232.144 52.5218 231.892 52.3888 231.622 52.3054C231.387 52.2343 231.143 52.1976 230.897 52.1965C230.573 52.1887 230.25 52.2481 229.95 52.3708C229.687 52.4801 229.452 52.6486 229.264 52.8631C229.065 53.094 228.916 53.3642 228.828 53.6561C228.722 54.0139 228.672 54.3856 228.679 54.7585C228.64 55.4418 228.839 56.1177 229.243 56.6712C229.441 56.9072 229.692 57.0936 229.976 57.2154C230.259 57.3372 230.567 57.3911 230.876 57.3727C231.12 57.3716 231.363 57.3349 231.596 57.2638C231.866 57.1768 232.118 57.0441 232.343 56.8717C232.425 56.8053 232.529 56.7712 232.635 56.7758C232.724 56.7828 232.807 56.8197 232.871 56.8804C232.938 56.9419 232.984 57.0226 233.002 57.1113C233.028 57.1995 233.028 57.2933 233.002 57.3814C232.968 57.4765 232.904 57.5577 232.819 57.6124C232.532 57.8478 232.201 58.024 231.845 58.1309C231.511 58.2328 231.164 58.2842 230.815 58.2834Z" fill="#1B1E32"/>
<path d="M243.215 58.2834C242.571 58.2975 241.934 58.1476 241.364 57.8477C240.857 57.5802 240.438 57.1715 240.159 56.6712C239.881 56.0924 239.737 55.4589 239.737 54.8173C239.737 54.1756 239.881 53.5421 240.159 52.9633C240.423 52.4563 240.82 52.0302 241.307 51.7303C241.822 51.4305 242.41 51.2796 243.006 51.2945C243.426 51.2865 243.844 51.3651 244.233 51.5255C244.588 51.6713 244.904 51.8964 245.159 52.1834C245.426 52.4874 245.626 52.8435 245.748 53.2291C245.886 53.6749 245.954 54.1394 245.949 54.606C245.954 54.6664 245.945 54.7272 245.923 54.7837C245.901 54.8403 245.866 54.8912 245.822 54.9327C245.718 55.0091 245.589 55.0462 245.46 55.0373H240.595V54.2748H245.185L244.962 54.4578C244.974 54.0217 244.898 53.5876 244.739 53.1812C244.609 52.8546 244.382 52.5751 244.089 52.3795C243.768 52.1858 243.398 52.0903 243.023 52.105C242.598 52.0908 242.178 52.2047 241.818 52.4318C241.485 52.6514 241.225 52.9655 241.071 53.3337C240.894 53.7601 240.808 54.2186 240.818 54.68V54.7628C240.77 55.467 240.991 56.1633 241.438 56.7104C241.669 56.941 241.945 57.12 242.25 57.2357C242.555 57.3514 242.881 57.4011 243.207 57.3814C243.524 57.3804 243.839 57.338 244.145 57.2551C244.473 57.1605 244.783 57.0134 245.062 56.8194C245.165 56.7449 245.289 56.7038 245.416 56.7017C245.511 56.7013 245.602 56.7354 245.674 56.7976C245.738 56.8581 245.785 56.9349 245.809 57.0198C245.832 57.1163 245.821 57.2178 245.779 57.3074C245.728 57.4191 245.642 57.5111 245.534 57.5688C245.205 57.8049 244.837 57.9805 244.447 58.0873C244.047 58.2084 243.633 58.2744 243.215 58.2834Z" fill="#1B1E32"/>
<path d="M255.747 58.2834C255.322 58.2838 254.898 58.2326 254.485 58.1309C254.063 58.0298 253.663 57.851 253.306 57.6037C253.221 57.5456 253.154 57.4659 253.11 57.3727C253.075 57.2889 253.062 57.1971 253.075 57.107C253.09 57.0219 253.129 56.943 253.189 56.8804C253.248 56.8168 253.326 56.7739 253.411 56.7584C253.516 56.7487 253.621 56.7715 253.713 56.8237C254.038 57.0308 254.393 57.1879 254.765 57.29C255.096 57.3759 255.436 57.4199 255.778 57.4207C256.197 57.4505 256.616 57.3484 256.974 57.1287C257.103 57.0411 257.208 56.9226 257.279 56.784C257.35 56.6454 257.385 56.4913 257.38 56.3357C257.386 56.2192 257.365 56.1029 257.319 55.9957C257.273 55.8884 257.203 55.7931 257.114 55.717C256.869 55.532 256.583 55.4093 256.28 55.3597L255.009 55.0809C254.519 55.0113 254.062 54.7939 253.699 54.4578C253.554 54.3027 253.44 54.1206 253.365 53.9217C253.291 53.7228 253.256 53.5112 253.263 53.2988C253.253 52.9142 253.368 52.5367 253.59 52.2226C253.827 51.9061 254.148 51.6617 254.516 51.5168C254.961 51.343 255.436 51.2586 255.913 51.2684C256.306 51.2657 256.697 51.32 257.075 51.4296C257.438 51.5313 257.778 51.703 258.075 51.935C258.16 51.9909 258.225 52.0715 258.262 52.166C258.293 52.2519 258.293 52.3458 258.262 52.4318C258.242 52.5173 258.197 52.5948 258.131 52.654C258.067 52.7146 257.984 52.7515 257.896 52.7585C257.792 52.7636 257.689 52.7345 257.603 52.6758C257.342 52.4904 257.055 52.3436 256.752 52.24C256.469 52.1526 256.174 52.1086 255.878 52.1093C255.46 52.0801 255.043 52.1871 254.691 52.4143C254.562 52.5061 254.457 52.6279 254.387 52.7692C254.316 52.9104 254.281 53.0669 254.285 53.2248C254.281 53.3431 254.302 53.4609 254.345 53.571C254.389 53.6811 254.454 53.7813 254.538 53.8653C254.758 54.0577 255.03 54.1832 255.319 54.2269L256.59 54.4883C257.09 54.571 257.559 54.7862 257.948 55.1114C258.098 55.2607 258.214 55.4401 258.29 55.6376C258.365 55.8351 258.397 56.0464 258.385 56.2573C258.391 56.543 258.328 56.826 258.199 57.0813C258.07 57.3365 257.881 57.5564 257.647 57.7213C257.088 58.1014 256.424 58.2979 255.747 58.2834Z" fill="#1B1E32"/>
<path d="M17.4661 29.8052H40.1721C40.6841 29.8046 41.1913 29.9047 41.6646 30.0997C42.1379 30.2947 42.5681 30.5808 42.9306 30.9417C43.293 31.3026 43.5808 31.7313 43.7772 32.2031C43.9737 32.675 44.0752 33.1808 44.0757 33.6918V38.2232H25.8848C25.3729 38.2226 24.866 38.3227 24.3929 38.5178C23.9199 38.7128 23.49 38.999 23.1278 39.36C22.7657 39.7209 22.4784 40.1496 22.2824 40.6214C22.0864 41.0932 21.9855 41.599 21.9855 42.1097V60.9194H17.4661C16.9523 60.9246 16.4425 60.8282 15.9662 60.6357C15.4899 60.4432 15.0566 60.1584 14.6912 59.7979C14.3258 59.4373 14.0356 59.0081 13.8374 58.535C13.6392 58.0619 13.5368 57.5544 13.5363 57.0416V33.6918C13.5374 33.1788 13.6401 32.671 13.8384 32.1977C14.0367 31.7244 14.3268 31.2949 14.692 30.9337C15.0571 30.5726 15.4902 30.287 15.9662 30.0933C16.4423 29.8997 16.952 29.8018 17.4661 29.8052Z" fill="url(#paint0_linear_128_25)"/>
<path d="M8.44049 46.066H3.92987C2.89213 46.066 1.8965 45.6565 1.16025 44.9267C0.424009 44.1969 0.00691829 43.2062 0 42.1707H0V18.8383C0 17.7983 0.414039 16.8009 1.15103 16.0655C1.88803 15.33 2.8876 14.9169 3.92987 14.9169H26.6358C27.6743 14.9227 28.6683 15.3383 29.4005 16.0731C30.1328 16.8079 30.5439 17.8021 30.5438 18.8383V23.361H12.3442C11.3057 23.3668 10.3117 23.7825 9.57943 24.5172C8.84715 25.252 8.43611 26.2462 8.43612 27.2824L8.44049 46.066Z" fill="url(#paint1_linear_128_25)"/>
<path d="M41.7177 47.225H33.3471C31.8061 47.225 30.5569 48.4715 30.5569 50.0092V58.3618C30.5569 59.8995 31.8061 61.146 33.3471 61.146H41.7177C43.2587 61.146 44.5079 59.8995 44.5079 58.3618V50.0092C44.5079 48.4715 43.2587 47.225 41.7177 47.225Z" fill="url(#paint2_linear_128_25)"/>
<defs>
<linearGradient id="paint0_linear_128_25" x1="29.0558" y1="29.6227" x2="29.0558" y2="60.7408" gradientUnits="userSpaceOnUse">
<stop stop-color="#ED6D5F"/>
<stop offset="0.42" stop-color="#EB5E71"/>
<stop offset="1" stop-color="#E7508A"/>
</linearGradient>
<linearGradient id="paint1_linear_128_25" x1="15.0122" y1="14.7636" x2="15.0122" y2="45.891" gradientUnits="userSpaceOnUse">
<stop stop-color="#ED6D5F"/>
<stop offset="0.42" stop-color="#EB5E71"/>
<stop offset="1" stop-color="#E7508A"/>
</linearGradient>
<linearGradient id="paint2_linear_128_25" x1="37.5608" y1="47.2381" x2="37.5608" y2="61.1591" gradientUnits="userSpaceOnUse">
<stop stop-color="#ED6D5F"/>
<stop offset="0.42" stop-color="#EB5E71"/>
<stop offset="1" stop-color="#E7508A"/>
</linearGradient>
</defs>
</svg>
