<svg width="176" height="107" viewBox="0 0 176 107" fill="none" xmlns="http://www.w3.org/2000/svg">
<rect width="176" height="107" rx="20" fill="white"/>
<path fill-rule="evenodd" clip-rule="evenodd" d="M45.9895 28.7751C45.6298 28.7751 45.2958 28.8534 44.9875 28.9578C45.6427 29.4014 46.0024 29.9885 46.1822 30.654C46.1951 30.7453 46.2208 30.8105 46.2336 30.9018C46.2465 30.9801 46.2593 31.0584 46.2593 31.1367C46.3107 32.2849 45.9638 32.4284 45.7197 33.1068C45.3472 33.981 45.45 34.9204 45.8996 35.6772C45.9381 35.7685 45.9895 35.8729 46.0538 35.9642C45.5656 32.6632 48.2762 32.1674 48.7772 31.1367C48.8158 30.2364 48.0835 29.6363 47.5054 29.2188C46.953 28.8795 46.452 28.7751 45.9895 28.7751ZM50.0747 29.5188C50.0233 29.8189 50.0618 29.7406 50.049 29.8972C50.0362 30.0016 50.0362 30.1321 50.0234 30.2364C49.9977 30.3408 49.972 30.4452 49.9334 30.5496C49.9078 30.654 49.8692 30.7583 49.8307 30.8627C49.7793 30.9671 49.7407 31.0584 49.6894 31.1628C49.6508 31.215 49.6251 31.2672 49.5866 31.3194C49.5609 31.3585 49.5352 31.3976 49.5095 31.4368C49.4453 31.5281 49.381 31.6194 49.3168 31.6977C49.2397 31.776 49.1755 31.8673 49.0856 31.9326V31.9457C49.0085 32.0109 48.9314 32.0892 48.8415 32.1544C48.5717 32.3632 48.2634 32.5197 47.9808 32.7154C47.8909 32.7807 47.8009 32.8329 47.7238 32.9111C47.6339 32.9764 47.5568 33.0416 47.4798 33.1199C47.3898 33.1982 47.3256 33.2765 47.2485 33.3678C47.1843 33.4461 47.1072 33.5374 47.0558 33.6287C46.9916 33.7201 46.9274 33.8114 46.876 33.9027C46.8246 34.0071 46.786 34.0984 46.7347 34.2028C46.6961 34.3072 46.6576 34.3985 46.6319 34.5029C46.5933 34.6203 46.5677 34.7247 46.542 34.8291C46.5291 34.8813 46.5291 34.9465 46.5163 34.9987C46.5034 35.0509 46.5034 35.1031 46.4906 35.1553C46.4906 35.2597 46.4777 35.3771 46.4777 35.4815C46.4777 35.5597 46.4777 35.638 46.4906 35.7163C46.4906 35.8207 46.5035 35.9251 46.5292 36.0425C46.542 36.1469 46.5677 36.2512 46.5934 36.3556C46.6319 36.46 46.6576 36.5644 46.6962 36.6688C46.7218 36.734 46.7604 36.7992 46.7861 36.8514L43.8314 35.6902C43.3304 35.5467 42.8422 35.4162 42.3412 35.2988C42.0714 35.2336 41.8016 35.1683 41.5319 35.1031C40.7611 34.9465 39.9774 34.8291 39.1938 34.7508C39.1681 34.7508 39.1552 34.7377 39.1296 34.7377C38.3588 34.6595 37.6008 34.6203 36.83 34.6203C36.2648 34.6203 35.6995 34.6464 35.1471 34.6856C34.3635 34.7378 33.5798 34.8421 32.7962 34.9726C32.6035 34.9987 32.4108 35.0378 32.2181 35.077C31.8199 35.1553 31.4345 35.2466 31.0619 35.3379C30.8692 35.3901 30.6765 35.4423 30.4838 35.4945C30.2911 35.5728 30.1113 35.6641 29.9314 35.7424C29.7901 35.8076 29.6488 35.8729 29.5075 35.9381C29.4818 35.9512 29.4561 35.9512 29.4433 35.9642C29.3148 36.0294 29.1992 36.0816 29.0836 36.1468C29.045 36.1599 29.0193 36.1729 28.9936 36.186C28.8523 36.2512 28.711 36.3295 28.5954 36.3947C28.5055 36.4339 28.4155 36.4861 28.3385 36.5252C28.2999 36.5513 28.2485 36.5774 28.2228 36.5904C28.1072 36.6557 27.9916 36.7209 27.8888 36.7861C27.7732 36.8514 27.6704 36.9166 27.5805 36.9819C27.4906 37.0471 27.4007 37.0993 27.3236 37.1645C27.3107 37.1776 27.2979 37.1776 27.285 37.1906C27.208 37.2428 27.118 37.308 27.041 37.3733C27.041 37.3733 27.0281 37.3863 27.0153 37.3993C26.9511 37.4515 26.8868 37.5037 26.8226 37.5559C26.7969 37.569 26.7712 37.595 26.7455 37.6081C26.6813 37.6603 26.617 37.7255 26.5528 37.7777C26.5399 37.8038 26.5143 37.8169 26.5014 37.8299C26.4243 37.9082 26.3473 37.9734 26.2702 38.0517C26.2573 38.0517 26.2573 38.0648 26.2445 38.0778C26.1674 38.143 26.0903 38.2213 26.0133 38.2996C26.0004 38.3127 26.0004 38.3257 25.9876 38.3257C25.9234 38.3909 25.8591 38.4562 25.7949 38.5344C25.7692 38.5605 25.7307 38.5866 25.705 38.6127C25.6407 38.691 25.5637 38.7693 25.4866 38.8476C25.4737 38.8736 25.448 38.8867 25.4352 38.9128C25.3324 39.0172 25.2425 39.1216 25.1397 39.2259C25.1268 39.239 25.114 39.252 25.1012 39.2651C24.8956 39.4869 24.6772 39.7087 24.446 39.9044C24.2147 40.1132 23.9707 40.3089 23.7266 40.4785C23.4696 40.6611 23.2256 40.8177 22.9558 40.9743C22.6989 41.1178 22.4291 41.2483 22.1465 41.3657C21.8767 41.4831 21.5941 41.5875 21.3114 41.6788C20.7719 41.7963 20.2195 42.0181 19.7441 42.0572C19.6414 42.0572 19.5258 42.0833 19.423 42.0963C19.3074 42.1224 19.2046 42.1485 19.1018 42.1746C18.9991 42.2138 18.8963 42.2529 18.7935 42.292C18.6907 42.3312 18.588 42.3834 18.4852 42.4356C18.3953 42.5008 18.2925 42.553 18.2026 42.6182C18.1126 42.6835 18.0227 42.7617 17.9456 42.84C17.8557 42.9053 17.7658 42.9966 17.6887 43.0749C17.6116 43.1662 17.5345 43.2445 17.4703 43.3358C17.4061 43.4402 17.329 43.5315 17.2776 43.6359C17.2134 43.7273 17.1492 43.8316 17.0978 43.936C17.0464 44.0534 16.995 44.1578 16.9565 44.2752C16.9179 44.3796 16.8794 44.497 16.8408 44.6145C16.8152 44.7188 16.7894 44.8232 16.7766 44.9276C16.7766 44.9407 16.7637 44.9537 16.7637 44.9667C16.7381 45.0842 16.7381 45.2407 16.7252 45.319C16.7123 45.4103 16.6995 45.4886 16.6995 45.58C16.6995 45.6322 16.6995 45.6974 16.7124 45.7496C16.7253 45.8409 16.7381 45.9192 16.7638 45.9975C16.7895 46.0758 16.8152 46.154 16.8537 46.2323V46.2454C16.8923 46.3237 16.9436 46.402 16.995 46.4802C17.0464 46.5585 17.0978 46.6368 17.162 46.7151C17.2263 46.7803 17.3033 46.8586 17.3804 46.9239C17.4575 47.0021 17.5346 47.0674 17.6245 47.1326C17.9328 47.4066 18.0099 47.4979 18.4082 47.7067C18.4724 47.7458 18.5366 47.7719 18.6137 47.8111C18.6266 47.8111 18.6394 47.8241 18.6522 47.8241C18.6522 47.8502 18.6522 47.8633 18.6651 47.8894C18.678 47.9938 18.7036 48.0981 18.7293 48.2025C18.755 48.3199 18.7936 48.4243 18.8321 48.5156C18.8707 48.5939 18.8963 48.6722 18.9349 48.7505C18.9478 48.7766 18.9606 48.8027 18.9734 48.8157C19.0248 48.9201 19.0762 49.0114 19.1276 49.1028C19.1918 49.1941 19.256 49.2854 19.3203 49.3768C19.3845 49.455 19.4616 49.5464 19.5387 49.6247C19.6157 49.7029 19.6928 49.7682 19.7828 49.8465C19.7828 49.8465 19.7956 49.8595 19.8084 49.8595C19.8855 49.9248 19.9626 49.99 20.0397 50.0422C20.1296 50.1074 20.2195 50.1596 20.3223 50.2118C20.4122 50.264 20.515 50.3162 20.6178 50.3553C20.6948 50.3945 20.7848 50.4206 20.8747 50.4467C20.8876 50.4597 20.9004 50.4597 20.9261 50.4727C20.9775 50.4858 21.0417 50.4988 21.0931 50.5119C21.0546 51.2164 21.0417 51.8818 21.1445 52.1167C21.2601 52.3776 21.8254 51.5818 22.3906 50.6684C22.3135 51.5687 22.2622 52.6255 22.3906 52.9387C22.5319 53.2648 23.3027 52.2472 23.9707 51.1251C33.0789 48.9854 41.3906 55.3785 42.2642 64.4072C42.0972 62.9981 40.3886 62.2153 39.605 62.411C39.2196 63.3765 38.5644 64.616 37.511 65.3858C37.6009 64.5246 37.5624 63.6374 37.3825 62.7763C37.0999 63.9767 36.5475 65.0987 35.7896 66.0642C34.5691 66.1555 33.3487 65.5554 32.7064 64.6551C32.655 64.616 32.6421 64.5377 32.6036 64.4855C32.5651 64.3942 32.5265 64.3028 32.5008 64.2115C32.4623 64.1202 32.4366 64.0288 32.4238 63.9375C32.4109 63.8462 32.4109 63.7549 32.4109 63.6505C32.4109 63.5852 32.4109 63.52 32.4109 63.4548C32.4238 63.3634 32.4494 63.2721 32.4751 63.1808C32.5008 63.0894 32.5265 62.9981 32.565 62.9068C32.6165 62.8154 32.655 62.7241 32.7192 62.6328C32.9376 62.0065 32.9376 61.4977 32.5394 61.1976C32.4623 61.1454 32.3852 61.1063 32.2953 61.0671C32.2439 61.054 32.1797 61.028 32.1283 61.0149C32.0897 61.0018 32.064 60.9888 32.0255 60.9758C31.9356 60.9497 31.8456 60.9235 31.7557 60.9105C31.6658 60.8844 31.5759 60.8714 31.4859 60.8714C31.396 60.8583 31.2932 60.8453 31.2033 60.8453C31.1391 60.8453 31.0748 60.8584 31.0106 60.8584C30.9078 60.8584 30.8179 60.8714 30.728 60.8975C30.6381 60.9106 30.5481 60.9236 30.4582 60.9497C30.3683 60.9758 30.2784 61.0019 30.1884 61.0411C30.0985 61.0802 30.0214 61.1193 29.9315 61.1585C29.8544 61.1976 29.7774 61.2498 29.6874 61.289C26.6942 63.2721 28.4799 67.917 30.5224 69.2608C29.7517 69.4044 28.968 69.574 28.7496 69.7436C28.7368 69.7567 28.724 69.7697 28.724 69.7697C29.2764 70.1089 29.8545 70.3959 30.4582 70.6438C31.2804 70.9178 32.154 71.1657 32.5394 71.2701V71.2832C33.6056 71.505 34.6847 71.5832 35.7767 71.518C41.4677 71.1135 46.131 66.7166 46.9789 60.9236C47.0046 61.0411 47.0303 61.1454 47.056 61.2629C47.0945 61.4977 47.1459 61.7456 47.1716 61.9935V62.0066C47.1973 62.124 47.2101 62.2414 47.223 62.3458V62.398C47.2359 62.5154 47.2487 62.6329 47.2487 62.7372C47.2615 62.8808 47.2743 63.0243 47.2743 63.1678V63.3766C47.2743 63.4418 47.2872 63.5201 47.2872 63.5853C47.2872 63.6636 47.2743 63.7419 47.2743 63.8202V64.0028C47.2743 64.0942 47.2615 64.1724 47.2615 64.2638C47.2615 64.316 47.2615 64.3682 47.2486 64.4334C47.2486 64.5247 47.2357 64.6161 47.2357 64.7204C47.2229 64.7596 47.2229 64.7987 47.2229 64.8379C47.21 64.9422 47.1972 65.0336 47.1843 65.1379C47.1843 65.1771 47.1843 65.2162 47.1714 65.2554C47.1586 65.3858 47.1329 65.5033 47.12 65.6337V65.6468V65.6599C47.0944 65.7773 47.0686 65.9078 47.043 66.0252V66.0643C47.0173 66.1818 46.9916 66.2992 46.9659 66.4166C46.9659 66.4297 46.953 66.4558 46.953 66.4688C46.9273 66.5863 46.9016 66.7037 46.8631 66.8211V66.8602C46.8246 66.9907 46.786 67.1081 46.7603 67.2256C46.7475 67.2386 46.7475 67.2516 46.7475 67.2516C46.7089 67.3821 46.6704 67.5126 46.6318 67.6431C46.5804 67.7735 46.5419 67.891 46.4905 68.0214C46.4391 68.1519 46.4006 68.2824 46.3492 68.3998C46.2978 68.5303 46.2464 68.6477 46.1951 68.7782H46.1822C46.1308 68.8956 46.0794 69.0261 46.0152 69.1435C46.0023 69.1826 45.9895 69.2087 45.9766 69.2348C45.9638 69.2479 45.9638 69.2609 45.951 69.274C45.1159 70.9832 43.8827 72.4836 42.3411 73.6578C42.2383 73.7231 42.1355 73.8014 42.0328 73.8796C42.0071 73.9057 41.9685 73.9188 41.9428 73.9449C41.8529 74.0101 41.763 74.0754 41.6602 74.1406L41.6988 74.2189H41.7116C41.8915 74.1928 42.0713 74.1667 42.2512 74.1406H42.2641C42.5981 74.0884 42.9321 74.0232 43.2661 73.9579C43.356 73.9449 43.4588 73.9188 43.5487 73.8927C43.6129 73.8796 43.6643 73.8666 43.7286 73.8535C43.8185 73.8405 43.9084 73.8144 43.9983 73.8013C44.0754 73.7753 44.1525 73.7622 44.2296 73.7361C45.5142 73.423 46.7603 72.9924 47.9551 72.4836C45.9125 75.3148 43.1762 77.5981 39.9774 79.0985C41.4547 78.9942 42.9321 78.7463 44.358 78.3287C49.5352 76.7761 53.8902 73.2403 56.498 68.4781C55.9713 71.492 54.7894 74.3624 53.0423 76.8675C54.2884 76.0324 55.4317 75.0669 56.4723 73.9709C59.3499 70.9179 61.2384 67.0429 61.8807 62.8808C62.3175 64.9422 62.446 67.069 62.2533 69.1696C71.5285 56.031 63.0241 42.4096 59.4656 38.8216C59.4527 38.7956 59.4399 38.7825 59.4399 38.7564C59.427 38.7695 59.427 38.7695 59.427 38.7825C59.427 38.7694 59.427 38.7694 59.4142 38.7564C59.4142 38.913 59.4013 39.0695 59.3885 39.2261C59.3499 39.5262 59.3114 39.8132 59.26 40.1003C59.1958 40.3873 59.1187 40.6743 59.0416 40.9614C58.9517 41.2354 58.8489 41.5224 58.7333 41.7964C58.6177 42.0574 58.4892 42.3313 58.3479 42.5923C58.2066 42.8402 58.0524 43.1011 57.8854 43.336C57.7184 43.5839 57.5386 43.8187 57.3587 44.0405C57.166 44.2754 56.9605 44.4841 56.7549 44.6929C56.6265 44.8103 56.5109 44.9147 56.3824 45.0191C56.2796 45.1104 56.1897 45.1887 56.0869 45.28C55.8557 45.4627 55.6244 45.6323 55.3675 45.7889C55.1234 45.9454 54.8665 46.102 54.6096 46.2325C54.3398 46.363 54.07 46.4804 53.8002 46.5978C53.5305 46.7022 53.2478 46.7935 52.9652 46.8718C52.6826 46.9501 52.3871 47.0153 52.1045 47.0675C51.809 47.1197 51.5136 47.1458 51.2309 47.1719C51.0254 47.185 50.8198 47.198 50.6143 47.198C50.3188 47.198 50.0234 47.1719 49.7407 47.1458C49.4453 47.1197 49.1498 47.0805 48.8672 47.0153C48.5717 46.9631 48.2891 46.8848 48.0064 46.7935H47.9936C48.2762 46.7674 48.5588 46.7413 48.8415 46.6891C49.1369 46.6369 49.4195 46.5717 49.7022 46.4934C49.9848 46.4151 50.2674 46.3238 50.5372 46.2194C50.8198 46.115 51.0896 45.9845 51.3465 45.8541C51.6163 45.7236 51.8604 45.5801 52.1173 45.4235C52.3614 45.2539 52.6055 45.0843 52.8367 44.9016C53.068 44.719 53.2864 44.5232 53.4919 44.3145C53.7103 44.1188 53.903 43.897 54.0957 43.6752C54.2884 43.4403 54.4682 43.2055 54.6352 42.9706C54.6609 42.9315 54.6866 42.8793 54.7123 42.8401C54.8408 42.6314 54.9692 42.4226 55.0849 42.2139C55.2262 41.9529 55.3546 41.692 55.4703 41.418C55.5859 41.144 55.6887 40.87 55.7786 40.583C55.8685 40.309 55.9327 40.0219 55.997 39.7349C56.0484 39.4348 56.0997 39.1478 56.1254 38.8607C56.1511 38.5606 56.1768 38.2606 56.1768 37.9735C56.1768 37.7648 56.164 37.556 56.1512 37.3473C56.1255 37.0472 56.0869 36.7601 56.0484 36.4731C55.997 36.173 55.9328 35.886 55.8557 35.5989C55.7658 35.3249 55.6758 35.0379 55.5731 34.7639C55.4703 34.4899 55.3418 34.2159 55.2134 33.955C55.0721 33.694 54.9307 33.4331 54.7766 33.1852C54.6096 32.9373 54.4426 32.7024 54.2627 32.4676C54.07 32.2458 53.8773 32.024 53.6718 31.8022C53.569 31.6978 53.4534 31.5804 53.3378 31.476C52.7597 31.0193 52.1559 30.5888 51.5521 30.1974C51.4622 30.1452 51.3851 30.106 51.2952 30.0669C50.8712 29.7929 50.473 29.6494 50.0748 29.5189L50.0747 29.5188Z" fill="#EA2845"/>
<path d="M78.3065 62.78C78.6842 62.5995 79.0397 62.4867 79.3729 62.419C80.195 62.2836 80.6615 62.1708 80.7948 62.0805C81.017 61.9452 81.1725 61.7646 81.2392 61.5841C81.3281 61.2682 81.3725 60.6139 81.3725 59.5759V57.6128L81.3947 56.0108L81.3281 53.619V52.1974C81.3281 51.2498 81.2614 50.46 81.1059 49.8733C81.0615 49.6477 80.8615 49.4221 80.5505 49.1964C80.1283 48.8805 79.4396 48.5872 78.4399 48.2939L78.4176 47.2108C78.5953 47.1657 78.7731 47.1205 78.9286 47.0979C79.0841 47.0753 79.684 46.9174 80.7282 46.6467C81.5502 46.3533 82.0834 46.1277 82.3056 46.0149C82.3945 45.9698 82.5055 45.9021 82.6833 45.8118C82.861 45.6539 83.061 45.5185 83.2831 45.3605C83.7275 45.0446 84.2607 44.4805 84.8827 43.7133L86.0602 43.623L86.0159 46.1728C85.9936 46.421 85.9936 46.6241 85.9936 46.782C85.9936 46.9174 85.9936 47.2559 86.0159 47.82C87.26 46.7369 88.3709 45.9923 89.3928 45.5636C90.7036 44.9995 91.97 44.7287 93.1475 44.7287C94.5472 44.7287 95.7913 45.0897 96.8355 45.7892C97.9019 46.4887 98.5907 47.301 98.9017 48.2036C99.235 49.1287 99.3905 51.0015 99.3905 53.7769L99.3016 61.1779C99.3016 61.5164 99.3682 61.8097 99.4793 62.0354C99.6348 62.1482 100.057 62.261 100.723 62.3738L101.812 62.5769C101.945 62.78 102.012 63.0056 102.012 63.299C102.012 63.4795 102.012 63.7277 101.99 64.0436L97.6131 63.7277L96.3245 63.7728H95.3025L92.3476 63.9984H91.5923C91.57 63.7953 91.57 63.66 91.57 63.5471C91.57 63.2764 91.5922 62.983 91.6144 62.6671C91.8143 62.6221 92.3476 62.5543 93.1696 62.4415C93.3918 62.4189 93.6361 62.3512 93.925 62.2836C94.2138 62.1707 94.3915 62.0354 94.436 61.9225C94.547 61.6518 94.6137 61.1779 94.6137 60.4559C94.6137 59.1697 94.5914 58.1994 94.5693 57.5225L94.5916 54.9051C94.5916 51.701 94.4138 49.7153 94.0139 48.9481C93.4363 47.7974 92.592 47.2333 91.459 47.2333C90.6369 47.2333 89.7705 47.4589 88.8818 47.8876C87.9709 48.3163 87.06 48.9707 86.1047 49.8507L86.0603 50.2343L86.1047 51.6558L86.0824 53.1676L86.1713 56.8005L86.1269 57.3646C86.1269 59.8241 86.2158 61.223 86.4157 61.5389C86.6157 61.8548 87.3488 62.1933 88.6374 62.5769C88.6818 62.8251 88.7041 63.0282 88.7041 63.141C88.7041 63.3215 88.6374 63.5923 88.5486 63.9759C88.082 63.9985 87.6821 63.9985 87.3711 63.9985C87.06 63.9985 86.5712 63.9534 85.9047 63.8631L83.5275 63.818C82.3278 63.818 80.6171 63.8631 78.3731 63.9759C78.3065 63.818 78.2842 63.66 78.2842 63.5021C78.2842 63.3893 78.2842 63.1411 78.3065 62.78L78.3065 62.78Z" fill="#EA2845"/>
<path d="M104.545 51.9268C104.945 50.6406 105.278 49.7832 105.589 49.377C106.411 48.136 107.3 47.1658 108.233 46.4663C109.188 45.7668 110.032 45.3155 110.788 45.0899C111.788 44.7965 112.565 44.6611 113.187 44.6611C114.587 44.6611 115.72 44.774 116.564 44.9996C117.431 45.2027 118.164 45.5186 118.741 45.9247C119.564 46.5114 120.23 47.1206 120.741 47.7073C121.252 48.3165 121.652 49.0386 121.963 49.8509C122.296 50.6632 122.474 51.656 122.518 52.8068L120.03 52.7617C119.341 52.7617 117.853 52.694 115.52 52.5586C114.654 52.5135 114.076 52.4683 113.743 52.4683C113.632 52.4683 112.832 52.4909 111.343 52.4909H109.41C109.388 52.7166 109.366 52.8971 109.366 53.0325C109.366 53.8448 109.477 54.6796 109.655 55.5822C109.855 56.4622 110.144 57.2294 110.521 57.9063C110.921 58.5832 111.388 59.1473 111.965 59.6212C112.543 60.1176 113.143 60.4561 113.743 60.6817L115.031 61.1104C116.187 61.1104 116.942 61.0653 117.342 60.9976C118.053 60.8397 118.675 60.6591 119.208 60.4335C119.764 60.1853 120.408 59.7791 121.185 59.215C121.719 59.6212 122.163 59.9597 122.541 60.2981C121.23 61.7422 119.852 62.8253 118.453 63.4797C117.053 64.134 115.476 64.4499 113.743 64.4499C112.565 64.4499 111.61 64.3596 110.854 64.134C109.877 63.8632 108.966 63.4571 108.166 62.893C107.366 62.3289 106.678 61.6294 106.1 60.8171C105.522 59.9822 105.078 59.1248 104.789 58.2448C104.434 57.094 104.234 56.1689 104.234 55.4919C104.234 54.1607 104.345 52.9873 104.545 51.9268L104.545 51.9268ZM117.52 50.9565C117.497 50.0991 117.342 49.3093 117.031 48.5196C116.72 47.7524 116.231 47.1658 115.564 46.737C114.92 46.3083 114.254 46.0827 113.587 46.0827C112.587 46.0827 111.699 46.534 110.877 47.414C110.077 48.3165 109.633 49.5124 109.521 51.0468L114.609 51.0694C114.942 51.0694 115.409 51.0468 115.987 51.0017C116.431 50.9566 116.742 50.934 116.92 50.934C117.053 50.934 117.253 50.934 117.52 50.9566V50.9565Z" fill="#EA2845"/>
<path d="M126.051 57.5904C126.495 57.5001 126.828 57.455 127.028 57.455C127.139 57.455 127.295 57.455 127.495 57.4776L127.695 57.7032C128.517 59.1474 129.028 60.0048 129.295 60.3207C129.806 60.9299 130.317 61.4263 130.828 61.8099C131.161 62.0356 131.694 62.3063 132.427 62.5545C132.916 62.7351 133.449 62.8253 134.005 62.8253C134.938 62.8253 135.737 62.532 136.404 61.9227C137.07 61.2909 137.404 60.6366 137.404 59.9145C137.404 59.4407 137.27 59.0345 137.026 58.6961C136.782 58.3576 136.271 58.0191 135.515 57.6807C135.138 57.5227 134.204 57.252 132.694 56.8684C131.205 56.4848 130.317 56.2366 130.005 56.1238C129.295 55.853 128.672 55.4694 128.139 54.9955C127.584 54.4991 127.184 53.9576 126.895 53.3484C126.517 52.4909 126.317 51.7463 126.317 51.1371C126.317 49.9863 126.495 49.0612 126.806 48.3166C127.139 47.5945 127.606 46.9402 128.206 46.3761C128.628 45.9473 129.272 45.5637 130.139 45.2253C131.005 44.8868 131.961 44.7063 132.938 44.7063C134.36 44.7063 135.604 44.7966 136.671 44.9996C137.737 45.2027 138.648 45.496 139.381 45.8796C139.492 46.2181 139.603 47.0304 139.781 48.2714C139.936 49.535 140.025 50.2796 140.025 50.5053C140.025 50.6181 140.003 50.7309 139.959 50.8438C139.559 50.9566 139.248 51.0243 138.981 51.0243C138.848 51.0243 138.626 51.0017 138.337 50.9792C138.204 50.7761 138.026 50.4376 137.804 50.0315C137.093 48.6776 136.36 47.7299 135.604 47.1884C134.849 46.6243 134.005 46.3535 133.005 46.3535C131.983 46.3535 131.116 46.6694 130.428 47.2561C129.917 47.7074 129.672 48.294 129.672 49.0612C129.672 49.5576 129.939 50.054 130.472 50.573C130.983 51.092 131.894 51.4981 133.183 51.7689C135.138 52.1976 136.582 52.6489 137.493 53.0776C138.826 53.7094 139.781 54.4766 140.314 55.334C140.847 56.1915 141.136 57.1843 141.136 58.3125C141.136 60.0725 140.47 61.5392 139.159 62.7125C137.87 63.8633 135.982 64.45 133.471 64.45C133.16 64.45 132.294 64.3823 130.916 64.2243C130.294 64.1566 129.561 63.9987 128.717 63.773C128.495 63.7053 127.962 63.5023 127.073 63.1187C126.917 63.0284 126.806 62.9156 126.717 62.8028C126.673 62.6674 126.562 62.0356 126.429 60.9074C126.206 59.0571 126.073 57.9515 126.051 57.5905V57.5904Z" fill="#EA2845"/>
<path d="M144.358 46.7595C146.113 46.0149 147.379 45.2702 148.157 44.5482C148.957 43.8261 149.779 42.6302 150.667 41.0056H151.934C152.067 41.4118 152.134 41.8179 152.134 42.2466C152.134 43.0364 152.111 43.6456 152.111 44.0969L152.045 45.4282C152.045 45.4959 152.045 45.6764 152.067 45.9472L152.578 45.9698C152.645 45.9698 153.356 45.9472 154.666 45.8795C154.777 45.8795 155.333 45.8569 156.333 45.8344C156.421 46.2405 156.488 46.6016 156.488 46.9175C156.488 47.2785 156.421 47.6846 156.31 48.1359C155.822 48.2036 155.466 48.2262 155.2 48.2262C155.088 48.2262 154.844 48.2262 154.489 48.1811H153.333L152.933 48.1585L151.867 48.2036L151.823 56.8682C151.8 58.538 151.823 59.5985 151.911 60.0047C152 60.4334 152.178 60.817 152.445 61.2006C152.778 61.3585 153.156 61.4488 153.578 61.4488C153.978 61.4488 154.266 61.4037 154.466 61.3359C154.666 61.2457 155 61.0426 155.444 60.6816C155.533 60.5913 155.688 60.5011 155.866 60.3657C156.222 60.6365 156.533 60.9298 156.755 61.2231L156.844 61.4939C156.31 62.3288 155.577 62.9831 154.622 63.457C153.689 63.9308 152.689 64.1565 151.623 64.1565C150.223 64.1565 149.112 63.7052 148.246 62.8252C147.379 61.9226 146.957 60.5462 146.957 58.6734L147.046 54.7021V48.2262L146.357 48.2036L144.735 48.2262L144.447 48.1585C144.358 48.0231 144.313 47.9103 144.313 47.7749C144.313 47.6846 144.336 47.3462 144.358 46.7595L144.358 46.7595Z" fill="#EA2845"/>
</svg>
