<svg width="67" height="63" viewBox="0 0 67 63" fill="none" xmlns="http://www.w3.org/2000/svg">
<rect width="67" height="63" rx="10" fill="url(#paint0_linear_77_26)"/>
<path d="M48.9183 14.0837C50.5714 14.0837 51.9163 15.4286 51.9163 17.0817C51.9163 18.7348 50.5714 20.0797 48.9183 20.0797C47.2652 20.0797 45.9203 18.7348 45.9203 17.0817C45.9203 15.4286 47.2652 14.0837 48.9183 14.0837ZM48.9183 18.3666C49.6268 18.3666 50.2032 17.7902 50.2032 17.0817C50.2032 16.3732 49.6268 15.7968 48.9183 15.7968C48.2098 15.7968 47.6334 16.3732 47.6334 17.0817C47.6334 17.7902 48.2098 18.3666 48.9183 18.3666Z" fill="white"/>
<path d="M41.3805 14.8547C42.6085 14.8547 43.6076 15.8538 43.6076 17.0817C43.6076 18.3097 42.6085 19.3088 41.3805 19.3088C40.1525 19.3088 39.1534 18.3097 39.1534 17.0817C39.1534 15.8538 40.1525 14.8547 41.3805 14.8547ZM41.3805 17.5957C41.664 17.5957 41.8945 17.3652 41.8945 17.0817C41.8945 16.7983 41.664 16.5678 41.3805 16.5678C41.0971 16.5678 40.8666 16.7983 40.8666 17.0817C40.8666 17.3652 41.0971 17.5957 41.3805 17.5957Z" fill="white"/>
<path d="M17.1394 16.2252H35.7271C36.2001 16.2252 36.5836 16.6087 36.5836 17.0818C36.5836 17.5549 36.2001 17.9384 35.7271 17.9384H17.1394C16.6663 17.9384 16.2828 17.5549 16.2828 17.0818C16.2828 16.6087 16.6663 16.2252 17.1394 16.2252Z" fill="white"/>
<path d="M54.1434 37.4682H50.9741V37.781C50.9741 38.2541 50.5906 38.6376 50.1175 38.6376C49.6444 38.6376 49.261 38.2541 49.261 37.781V37.4682H17.5677V37.781C17.5677 38.2541 17.1842 38.6376 16.7112 38.6376C16.2381 38.6376 15.8546 38.2541 15.8546 37.781V37.4682H12.8566C12.3835 37.4682 12 37.0847 12 36.6116V26.1614C12 25.6883 12.3835 25.3048 12.8566 25.3048H15.8546V23.1634H12.8566C12.3835 23.1634 12 22.7799 12 22.3068V11.8566C12 11.3835 12.3835 11.0001 12.8566 11.0001H54.1434C54.6165 11.0001 55 11.3835 55 11.8566V22.3068C55 22.7799 54.6165 23.1634 54.1434 23.1634H50.9741V25.3048H54.1434C54.6165 25.3048 55 25.6883 55 26.1614V36.6116C55 37.0847 54.6165 37.4682 54.1434 37.4682ZM53.2869 21.4503V12.7132H13.7131V21.4503H53.2869ZM17.5677 23.1634V25.3048H49.261V23.1634H17.5677ZM53.2869 27.018H13.7131V35.755H53.2869V27.018Z" fill="white"/>
<path d="M48.9183 28.3885C50.5714 28.3885 51.9163 29.7334 51.9163 31.3865C51.9163 33.0396 50.5714 34.3845 48.9183 34.3845C47.2652 34.3845 45.9203 33.0396 45.9203 31.3865C45.9203 29.7334 47.2652 28.3885 48.9183 28.3885ZM48.9183 32.6714C49.6268 32.6714 50.2032 32.095 50.2032 31.3865C50.2032 30.678 49.6268 30.1017 48.9183 30.1017C48.2098 30.1017 47.6334 30.678 47.6334 31.3865C47.6334 32.095 48.2098 32.6714 48.9183 32.6714Z" fill="white"/>
<path d="M41.3805 29.1593C42.6085 29.1593 43.6076 30.1584 43.6076 31.3864C43.6076 32.6144 42.6085 33.6135 41.3805 33.6135C40.1525 33.6135 39.1534 32.6144 39.1534 31.3864C39.1534 30.1584 40.1525 29.1593 41.3805 29.1593ZM41.3805 31.9004C41.664 31.9004 41.8945 31.6699 41.8945 31.3864C41.8945 31.103 41.664 30.8725 41.3805 30.8725C41.0971 30.8725 40.8666 31.103 40.8666 31.3864C40.8666 31.6699 41.0971 31.9004 41.3805 31.9004Z" fill="white"/>
<path d="M17.1394 30.53H35.7271C36.2001 30.53 36.5836 30.9135 36.5836 31.3866C36.5836 31.8597 36.2001 32.2432 35.7271 32.2432H17.1394C16.6663 32.2432 16.2828 31.8597 16.2828 31.3866C16.2828 30.9135 16.6663 30.53 17.1394 30.53Z" fill="white"/>
<path d="M54.1434 51.6873H12.8566C12.3835 51.6873 12 51.3038 12 50.8307V40.3805C12 39.9074 12.3835 39.5239 12.8566 39.5239H54.1434C54.6165 39.5239 55 39.9074 55 40.3805V50.8307C55 51.3038 54.6165 51.6873 54.1434 51.6873ZM53.2869 41.2371H13.7131V49.9741H53.2869V41.2371Z" fill="white"/>
<path d="M48.9183 42.6076C50.5714 42.6076 51.9163 43.9525 51.9163 45.6056C51.9163 47.2587 50.5714 48.6036 48.9183 48.6036C47.2652 48.6036 45.9203 47.2587 45.9203 45.6056C45.9203 43.9525 47.2652 42.6076 48.9183 42.6076ZM48.9183 46.8905C49.6268 46.8905 50.2032 46.3141 50.2032 45.6056C50.2032 44.8972 49.6268 44.3208 48.9183 44.3208C48.2098 44.3208 47.6334 44.8972 47.6334 45.6056C47.6334 46.3141 48.2098 46.8905 48.9183 46.8905Z" fill="white"/>
<path d="M41.3805 43.3786C42.6085 43.3786 43.6076 44.3777 43.6076 45.6057C43.6076 46.8337 42.6085 47.8328 41.3805 47.8328C40.1525 47.8328 39.1534 46.8337 39.1534 45.6057C39.1534 44.3777 40.1525 43.3786 41.3805 43.3786ZM41.3805 46.1196C41.664 46.1196 41.8945 45.8891 41.8945 45.6057C41.8945 45.3222 41.664 45.0917 41.3805 45.0917C41.0971 45.0917 40.8666 45.3222 40.8666 45.6057C40.8666 45.8891 41.0971 46.1196 41.3805 46.1196Z" fill="white"/>
<path d="M17.1394 44.749H29.988C30.4611 44.749 30.8446 45.1325 30.8446 45.6056C30.8446 46.0787 30.4611 46.4622 29.988 46.4622H17.1394C16.6663 46.4622 16.2828 46.0787 16.2828 45.6056C16.2828 45.1325 16.6663 44.749 17.1394 44.749Z" fill="white"/>
<path d="M33.1574 44.749H35.7271C36.2002 44.749 36.5837 45.1325 36.5837 45.6056C36.5837 46.0787 36.2002 46.4622 35.7271 46.4622H33.1574C32.6843 46.4622 32.3008 46.0787 32.3008 45.6056C32.3008 45.1325 32.6843 44.749 33.1574 44.749Z" fill="white"/>
<defs>
<linearGradient id="paint0_linear_77_26" x1="33.5" y1="0" x2="33.5" y2="63" gradientUnits="userSpaceOnUse">
<stop stop-color="#E95879"/>
<stop offset="1" stop-color="#EC6367"/>
</linearGradient>
</defs>
</svg>
